<?xml version="1.0" ?><svg style="enable-background:new 0 0 64 64;" version="1.1" viewBox="0 0 64 64" xml:space="preserve" xmlns="http://www.w3.org/2000/svg" xmlns:xlink="http://www.w3.org/1999/xlink"><g id="Layer_1"/><g id="Light"/><g id="Window"/><g id="Rub_el_hizb"/><g id="Muslimah"/><g id="Muslim"/><g id="Wudhu"/><g id="Praying_00000094592418709929368740000016989174723214131090_"/><g id="Praying"/><g id="Pray"/><g id="Ketupat"/><g id="Gift"/><g id="Oil_Lamp"/><g id="Tauhid"/><g id="Zakat"/><g id="Eat"/><g id="Oud"/><g id="Teapot"/><g id="Iftar"/><g id="Dawn"/><g id="Infaq"/><g id="Sajadah"/><g id="Kaaba"/><g id="Mosque_00000003803682752247596670000011302116631847618953_"/><g id="Fasting"/><g id="Quran_00000024699989614576326310000007593149211605186702_"/><g id="Calendar"/><g id="Bedug"/><g id="Lantern"><g><path d="M54,28c1.104,0,2-0.896,2-2s-0.896-2-2-2h-2.02c-0.206-5.074-3.875-9.419-8.89-10.421    c-1.377-0.276-2.629-0.946-3.621-1.938l-0.318-0.318C40.288,10.23,41,8.698,41,7c0-3.309-2.691-6-6-6s-6,2.691-6,6    c0,1.698,0.712,3.23,1.849,4.323l-0.319,0.319c-0.992,0.992-2.244,1.662-3.62,1.938C21.895,14.581,18.226,18.926,18.02,24H16    c-1.104,0-2,0.896-2,2s0.896,2,2,2h3v23h-3c-1.104,0-2,0.896-2,2s0.896,2,2,2h2c0,4.411,3.589,8,8,8h18c4.411,0,8-3.589,8-8h2    c1.104,0,2-0.896,2-2s-0.896-2-2-2h-3V28H54z M47,51h-3v-9.868c0-3.333-2-6.287-5.094-7.524c-0.52-0.208-0.983-0.513-1.378-0.908    l-1.114-1.114c-0.781-0.781-2.047-0.781-2.828,0l-1.115,1.115c-0.394,0.395-0.857,0.7-1.376,0.908C28,34.846,26,37.799,26,41.132    V51h-3V28h24V51z M40,51H30v-9.868c0-1.688,1.013-3.183,2.58-3.81c0.896-0.359,1.709-0.866,2.42-1.508    c0.711,0.643,1.523,1.149,2.421,1.508C38.987,37.949,40,39.444,40,41.132V51z M35,5c1.103,0,2,0.897,2,2s-0.897,2-2,2    s-2-0.897-2-2S33.897,5,35,5z M27.695,17.5c2.153-0.431,4.112-1.479,5.664-3.031l1.477-1.477C34.892,12.993,34.945,13,35,13    s0.108-0.007,0.163-0.008l1.478,1.478c1.553,1.552,3.512,2.6,5.664,3.031c3.153,0.631,5.48,3.326,5.682,6.5H22.014    C22.215,20.826,24.542,18.131,27.695,17.5z M44,59H26c-2.206,0-4-1.794-4-4h26C48,57.206,46.206,59,44,59z"/><path d="M57,7h-1V6c0-1.104-0.896-2-2-2s-2,0.896-2,2v1h-1c-1.104,0-2,0.896-2,2s0.896,2,2,2h1v1c0,1.104,0.896,2,2,2s2-0.896,2-2    v-1h1c1.104,0,2-0.896,2-2S58.104,7,57,7z"/><path d="M15,44c0-1.104-0.896-2-2-2h-1v-1c0-1.104-0.896-2-2-2s-2,0.896-2,2v1H7c-1.104,0-2,0.896-2,2s0.896,2,2,2h1v1    c0,1.104,0.896,2,2,2s2-0.896,2-2v-1h1C14.104,46,15,45.104,15,44z"/></g></g><g id="Quran"/><g id="Mosque"/></svg>