<?xml version="1.0" ?><svg style="enable-background:new 0 0 64 64;" version="1.1" viewBox="0 0 64 64" xml:space="preserve" xmlns="http://www.w3.org/2000/svg" xmlns:xlink="http://www.w3.org/1999/xlink"><g id="Layer_1"/><g id="Light"><g><path d="M61,21h-4.519C37.308,21,18.78,14.071,4.312,1.49C3.478,0.764,2.215,0.853,1.49,1.687    C0.765,2.521,0.854,3.783,1.687,4.508c3.558,3.094,7.357,5.848,11.336,8.274C13.014,12.854,13,12.925,13,13v7.113    c-1.659,1.519-3.556,2.709-5.676,3.504C4.14,24.812,2,27.9,2,31.302V33c0,0.738,0.405,1.376,1,1.723v12.555    C2.405,47.624,2,48.262,2,49v1.698c0,3.401,2.14,6.49,5.325,7.686c2.367,0.887,4.474,2.243,6.261,4.03    C13.977,62.805,14.488,63,15,63s1.023-0.195,1.414-0.586c1.787-1.787,3.894-3.144,6.262-4.031C25.86,57.188,28,54.1,28,50.698V49    c0-0.738-0.405-1.376-1-1.723V34.723c0.595-0.346,1-0.984,1-1.723v-1.698c0-3.401-2.14-6.49-5.325-7.686    c-2.119-0.794-4.016-1.984-5.675-3.503v-5.038c9.291,4.985,19.471,8.16,30,9.364v5.119C40.667,31.315,36,37.115,36,44    c0,8.271,6.729,15,15,15c4.129,0,7.974-1.644,10.826-4.628c0.538-0.563,0.7-1.39,0.414-2.115s-0.968-1.219-1.746-1.264    C55.73,50.722,52,46.771,52,42c0-3.486,1.947-6.594,5.081-8.109c0.702-0.34,1.143-1.057,1.129-1.837    c-0.015-0.779-0.48-1.479-1.194-1.794C55.118,29.424,53.095,29,51,29v-4.201C52.821,24.919,54.647,25,56.481,25H61    c1.104,0,2-0.896,2-2S62.104,21,61,21z M23,35v12h-6V35H23z M13,47H7V35h6V47z M21.271,54.638    c-2.303,0.863-4.405,2.089-6.271,3.652c-1.865-1.563-3.968-2.789-6.27-3.651C7.191,54.062,6.129,52.622,6.011,51h17.979    C23.871,52.622,22.809,54.062,21.271,54.638z M23.989,31H6.011c0.118-1.622,1.181-3.062,2.719-3.638    c2.303-0.863,4.405-2.089,6.271-3.652c1.865,1.563,3.968,2.789,6.27,3.651C22.809,27.938,23.871,29.378,23.989,31z M51.61,33.017    C49.342,35.402,48,38.617,48,42c0,5.297,3.184,9.893,7.781,11.913C54.312,54.625,52.688,55,51,55c-6.065,0-11-4.935-11-11    s4.935-11,11-11C51.204,33,51.408,33.006,51.61,33.017z"/><path d="M55,9h1v1c0,1.104,0.896,2,2,2s2-0.896,2-2V9h1c1.104,0,2-0.896,2-2s-0.896-2-2-2h-1V4c0-1.104-0.896-2-2-2s-2,0.896-2,2    v1h-1c-1.104,0-2,0.896-2,2S53.896,9,55,9z"/><path d="M36,56h-1v-1c0-1.104-0.896-2-2-2s-2,0.896-2,2v1h-1c-1.104,0-2,0.896-2,2s0.896,2,2,2h1v1c0,1.104,0.896,2,2,2    s2-0.896,2-2v-1h1c1.104,0,2-0.896,2-2S37.104,56,36,56z"/><path d="M37.02,29c0-1.104-0.895-2-2-2h-0.01c-1.104,0-1.995,0.896-1.995,2s0.9,2,2.005,2C36.125,31,37.02,30.104,37.02,29z"/><path d="M22.02,7c1.105,0,2-0.896,2-2s-0.895-2-2-2h-0.01c-1.104,0-1.995,0.896-1.995,2S20.915,7,22.02,7z"/><path d="M47.02,15c1.105,0,2-0.896,2-2s-0.895-2-2-2h-0.01c-1.104,0-1.995,0.896-1.995,2S45.915,15,47.02,15z"/></g></g><g id="Window"/><g id="Rub_el_hizb"/><g id="Muslimah"/><g id="Muslim"/><g id="Wudhu"/><g id="Praying_00000094592418709929368740000016989174723214131090_"/><g id="Praying"/><g id="Pray"/><g id="Ketupat"/><g id="Gift"/><g id="Oil_Lamp"/><g id="Tauhid"/><g id="Zakat"/><g id="Eat"/><g id="Oud"/><g id="Teapot"/><g id="Iftar"/><g id="Dawn"/><g id="Infaq"/><g id="Sajadah"/><g id="Kaaba"/><g id="Mosque_00000003803682752247596670000011302116631847618953_"/><g id="Fasting"/><g id="Quran_00000024699989614576326310000007593149211605186702_"/><g id="Calendar"/><g id="Bedug"/><g id="Lantern"/><g id="Quran"/><g id="Mosque"/></svg>