<?xml version="1.0" ?><svg style="enable-background:new 0 0 64 64;" version="1.1" viewBox="0 0 64 64" xml:space="preserve" xmlns="http://www.w3.org/2000/svg" xmlns:xlink="http://www.w3.org/1999/xlink"><g id="Layer_1"/><g id="Light"/><g id="Window"/><g id="Rub_el_hizb"/><g id="Muslimah"/><g id="Muslim"/><g id="Wudhu"/><g id="Praying_00000094592418709929368740000016989174723214131090_"/><g id="Praying"/><g id="Pray"/><g id="Ketupat"/><g id="Gift"/><g id="Oil_Lamp"/><g id="Tauhid"/><g id="Zakat"/><g id="Eat"/><g id="Oud"/><g id="Teapot"/><g id="Iftar"/><g id="Dawn"/><g id="Infaq"/><g id="Sajadah"/><g id="Kaaba"/><g id="Mosque_00000003803682752247596670000011302116631847618953_"><g><path d="M52,49h-1.981C51.898,46.797,53,43.977,53,41c0-4.417-2.382-8.522-6.218-10.714l-0.599-0.342    c-4.915-2.809-9.111-6.8-12.184-11.55v-2.689c2.888-0.863,5-3.541,5-6.705c0-1.104-0.896-2-2-2s-2,0.896-2,2c0,1.654-1.346,3-3,3    s-3-1.346-3-3s1.346-3,3-3c1.104,0,2-0.896,2-2s-0.896-2-2-2c-3.86,0-7,3.14-7,7c0,3.165,2.112,5.842,5,6.705v2.689    c-2.822,4.362-6.597,8.071-11,10.824V25c1.104,0,2-0.896,2-2s-0.896-2-2-2h-1v-5.172l0.132-0.132    C19.337,14.492,20,12.891,20,11.188c0-1.996-0.953-3.902-2.55-5.1c-1.418-1.063-2.772-2.237-4.025-3.49l-1.011-1.011    c-0.78-0.781-2.048-0.781-2.828,0L8.575,2.597C7.322,3.85,5.968,5.024,4.55,6.087C2.953,7.285,2,9.191,2,11.188    c0,1.703,0.663,3.304,1.868,4.508L4,15.828V21H3c-1.104,0-2,0.896-2,2s0.896,2,2,2v36c0,1.104,0.896,2,2,2h7h40    c1.104,0,2-0.896,2-2V51C54,49.896,53.104,49,52,49z M44.2,33.417l0.599,0.342C47.39,35.241,49,38.015,49,41    s-1.61,5.759-4.201,7.24L43.469,49h-2.732l0.079-0.118C42.244,46.738,43,44.244,43,41.668c0-2.795-0.924-5.566-2.602-7.802    c-1.377-1.836-2.547-3.797-3.516-5.856C39.105,30.08,41.556,31.906,44.2,33.417z M26.512,46.663    C25.523,45.179,25,43.452,25,41.668c0-1.935,0.64-3.854,1.801-5.402c2.197-2.929,3.94-6.134,5.199-9.553    c1.259,3.418,3.002,6.624,5.199,9.553C38.36,37.814,39,39.732,39,41.668c0,1.783-0.523,3.511-1.513,4.995L35.93,49H28.07    L26.512,46.663z M19.801,33.417c2.644-1.511,5.094-3.336,7.316-5.407c-0.969,2.06-2.14,4.02-3.517,5.855    C21.923,36.102,21,38.873,21,41.668c0,2.576,0.755,5.071,2.184,7.214L23.263,49h-2.732l-1.33-0.759C16.61,46.759,15,43.985,15,41    s1.61-5.759,4.201-7.24L19.801,33.417z M8,17h6v4H8V17z M6.95,9.288C8.368,8.224,9.728,7.061,11,5.823    c1.272,1.238,2.632,2.401,4.05,3.465c0.595,0.446,0.95,1.156,0.95,1.9c0,0.635-0.247,1.231-0.696,1.68L15.171,13H6.829    l-0.133-0.132C6.247,12.419,6,11.822,6,11.188C6,10.444,6.355,9.733,6.95,9.288z M7,25h8v6.938c-2.504,2.309-4,5.581-4,9.062    c0,2.977,1.102,5.797,2.982,8H12c-1.104,0-2,0.896-2,2v8H7V25z M50,59H14v-6h6h7h10h7h6V59z"/><path d="M62.016,13.187c-0.527-0.52-1.297-0.708-2.004-0.485C59.38,12.899,58.703,13,58,13c-3.859,0-7-3.14-7-7    c0-0.703,0.101-1.38,0.298-2.012c0.222-0.706,0.034-1.477-0.485-2.003c-0.521-0.526-1.289-0.721-1.998-0.51    C44.214,2.855,41,7.183,41,12c0,6.065,4.935,11,11,11c4.816,0,9.146-3.214,10.526-7.815    C62.738,14.476,62.542,13.707,62.016,13.187z M52,19c-3.859,0-7-3.14-7-7c0-1.887,0.773-3.655,2.051-4.94    c0.501,5.222,4.668,9.389,9.89,9.89C55.655,18.226,53.887,19,52,19z"/><path d="M55.02,27h-0.01c-1.104,0-1.995,0.896-1.995,2s0.9,2,2.005,2c1.105,0,2-0.896,2-2S56.125,27,55.02,27z"/><path d="M59.02,7c1.105,0,2-0.896,2-2s-0.895-2-2-2h-0.01c-1.104,0-1.995,0.896-1.995,2S57.915,7,59.02,7z"/></g></g><g id="Fasting"/><g id="Quran_00000024699989614576326310000007593149211605186702_"/><g id="Calendar"/><g id="Bedug"/><g id="Lantern"/><g id="Quran"/><g id="Mosque"/></svg>