<?xml version="1.0" standalone="no"?>
<!DOCTYPE svg PUBLIC "-//W3C//DTD SVG 1.0//EN" "http://www.w3.org/TR/2001/REC-SVG-20010904/DTD/svg10.dtd">
<svg style="enable-background:new 0 0 64 64;" version="1.1" viewBox="0 0 64 64" xml:space="preserve" xmlns="http://www.w3.org/2000/svg" xmlns:xlink="http://www.w3.org/1999/xlink" xmlns:inkscape ="http://www.inkscape.org/namespaces/inkscape" >
<desc>CopyRight:SVG Design Editor;
configurationStart;Unit=smInches;Dpi=96;Division=4;Grid=True;Zoom=1;CanvasW=64;CanvasH=64;configurationEnd;</desc>
<g isVisble = "True" inkscape:label = "white-lantern-icon Default Layer" inkscape:groupmode = "layer" ><g id="group_1">
<g id="group_2">
<path style="fill:#FFFFFF;stroke:none; stroke-width:1" d="m61,21l-4.52,0c-19.17,0 -37.7,-6.93 -52.17,-19.51c-0.83,-0.73 -2.1,-0.64 -2.82,0.2c-0.72,0.83 -0.64,2.1 0.2,2.82c3.56,3.09 7.36,5.85 11.34,8.27c-0.01,0.07 -0.02,0.14 -0.02,0.22l0,7.11c-1.66,1.52 -3.56,2.71 -5.68,3.5c-3.18,1.2 -5.32,4.28 -5.32,7.69l0,1.7c0,0.74 0.4,1.38 1,1.72l0,12.56c-0.6,0.35 -1,0.98 -1,1.72l0,1.7c0,3.4 2.14,6.49 5.32,7.69c2.37,0.89 4.47,2.24 6.26,4.03c0.39,0.39 0.9,0.59 1.41,0.59s1.02,-0.19 1.41,-0.59c1.79,-1.79 3.89,-3.14 6.26,-4.03c3.18,-1.2 5.32,-4.28 5.32,-7.69l0,-1.7c0,-0.74 -0.41,-1.38 -1,-1.72l0,-12.55c0.59,-0.35 1,-0.98 1,-1.72l0,-1.7c0,-3.4 -2.14,-6.49 -5.33,-7.69c-2.12,-0.79 -4.02,-1.98 -5.67,-3.5l0,-5.04c9.29,4.99 19.47,8.16 30,9.36l0,5.12c-6.33,1.76 -11,7.56 -11,14.44c0,8.27 6.73,15 15,15c4.13,0 7.97,-1.64 10.83,-4.63c0.54,-0.56 0.7,-1.39 0.41,-2.12s-0.97,-1.22 -1.75,-1.26c-4.76,-0.27 -8.49,-4.22 -8.49,-8.99c0,-3.49 1.95,-6.59 5.08,-8.11c0.7,-0.34 1.14,-1.06 1.13,-1.84c-0.01,-0.78 -0.48,-1.48 -1.19,-1.79c-1.9,-0.84 -3.92,-1.26 -6.02,-1.26l0,-4.2c1.82,0.12 3.65,0.2 5.48,0.2l4.52,0c1.1,0 2,-0.9 2,-2s-0.9,-2 -2,-2l0,0zm-38,14l0,12l-6,0l0,-12l6,0zm-10,12l-6,0l0,-12l6,0l0,12zm8.27,7.64c-2.3,0.86 -4.41,2.09 -6.27,3.65c-1.86,-1.56 -3.97,-2.79 -6.27,-3.65c-1.54,-0.58 -2.6,-2.02 -2.72,-3.64l17.98,0c-0.12,1.62 -1.18,3.06 -2.72,3.64zm2.72,-23.64l-17.98,0c0.12,-1.62 1.18,-3.06 2.72,-3.64c2.3,-0.86 4.4,-2.09 6.27,-3.65c1.87,1.56 3.97,2.79 6.27,3.65c1.54,0.58 2.6,2.02 2.72,3.64l0,0zm27.62,2.02c-2.27,2.39 -3.61,5.6 -3.61,8.98c0,5.3 3.18,9.89 7.78,11.91c-1.47,0.71 -3.09,1.09 -4.78,1.09c-6.06,0 -11,-4.94 -11,-11s4.94,-11 11,-11c0.2,0 0.41,0.01 0.61,0.02z" transform = "matrix(1,0,0,1,0,0)" vector-effect="non-scaling-stroke" pen = "1,1" />
<path style="fill:#FFFFFF;stroke:none; stroke-width:1" d="m55,9l1,0l0,1c0,1.1 0.9,2 2,2s2,-0.9 2,-2l0,-1l1,0c1.1,0 2,-0.9 2,-2s-0.9,-2 -2,-2l-1,0l0,-1c0,-1.1 -0.9,-2 -2,-2s-2,0.9 -2,2l0,1l-1,0c-1.1,0 -2,0.9 -2,2s0.9,2 2,2z" transform = "matrix(1,0,0,1,0,0)" vector-effect="non-scaling-stroke" pen = "1,1" />
<path style="fill:#FFFFFF;stroke:none; stroke-width:1" d="m36,56l-1,0l0,-1c0,-1.1 -0.9,-2 -2,-2s-2,0.9 -2,2l0,1l-1,0c-1.1,0 -2,0.9 -2,2s0.9,2 2,2l1,0l0,1c0,1.1 0.9,2 2,2s2,-0.9 2,-2l0,-1l1,0c1.1,0 2,-0.9 2,-2s-0.9,-2 -2,-2z" transform = "matrix(1,0,0,1,0,0)" vector-effect="non-scaling-stroke" pen = "1,1" />
<path style="fill:#FFFFFF;stroke:none; stroke-width:1" d="m37.02,29c0,-1.1 -0.9,-2 -2,-2l-0.01,0c-1.1,0 -1.99,0.9 -1.99,2s0.9,2 2.01,2c1.1,0 2,-0.9 2,-2z" transform = "matrix(1,0,0,1,0,0)" vector-effect="non-scaling-stroke" pen = "1,1" />
<path style="fill:#FFFFFF;stroke:none; stroke-width:1" d="m22.02,7c1.1,0 2,-0.9 2,-2s-0.9,-2 -2,-2l-0.01,0c-1.1,0 -2,0.9 -2,2s0.9,2 2.01,2z" transform = "matrix(1,0,0,1,0,0)" vector-effect="non-scaling-stroke" pen = "1,1" />
<path style="fill:#FFFFFF;stroke:none; stroke-width:1" d="m47.02,15c1.1,0 2,-0.9 2,-2s-0.9,-2 -2,-2l-0.01,0c-1.1,0 -1.99,0.9 -1.99,2s0.9,2 2,2z" transform = "matrix(1,0,0,1,0,0)" vector-effect="non-scaling-stroke" pen = "1,1" />
</g>
</g>
</g>
</svg>
