<?xml version="1.0" ?><svg style="enable-background:new 0 0 64 64;" version="1.1" viewBox="0 0 64 64" xml:space="preserve" xmlns="http://www.w3.org/2000/svg" xmlns:xlink="http://www.w3.org/1999/xlink"><g id="Layer_1"/><g id="Light"/><g id="Window"/><g id="Rub_el_hizb"/><g id="Muslimah"/><g id="Muslim"/><g id="Wudhu"/><g id="Praying_00000094592418709929368740000016989174723214131090_"/><g id="Praying"/><g id="Pray"/><g id="Ketupat"/><g id="Gift"/><g id="Oil_Lamp"/><g id="Tauhid"/><g id="Zakat"/><g id="Eat"/><g id="Oud"/><g id="Teapot"/><g id="Iftar"><g><path d="M48,32c-3.919,0-7.118,2.153-8.763,5.742c-1.018-0.399-2.047-0.643-3.075-0.717c-0.286-0.021-0.57-0.021-0.853-0.016    l1.681-16.81c0.056-0.562-0.128-1.122-0.508-1.541C36.104,18.239,35.565,18,35,18H5c-0.565,0-1.104,0.239-1.483,0.658    c-0.379,0.419-0.563,0.979-0.507,1.541l3.82,38.2C7.036,60.452,8.747,62,10.81,62h18.38c2.063,0,3.774-1.548,3.98-3.602    l0.052-0.518c3.194,2.245,6.933,3.689,10.149,3.688c1.866,0,3.552-0.492,4.858-1.589C53.998,59.761,58,51.468,58,44    C58,35.71,52.978,32,48,32z M32.79,22l-0.8,8h-4.959c-2.29,0-4.551-0.601-6.539-1.736C17.901,26.783,14.954,26,11.969,26H7.61    l-0.4-4H32.79z M10.81,58l-2.8-28h3.959c2.29,0,4.551,0.601,6.539,1.736C21.099,33.217,24.046,34,27.031,34h4.559l-0.408,4.082    c-0.846,0.45-1.64,1.031-2.354,1.746c-3.366,3.366-4.345,9.16,0.702,14.787L29.19,58H10.81z M33.069,52.555    c-1-1.001-1.75-2.026-2.261-3.041l0.709,0.177C32.339,49.896,33.184,50,34.028,50c0.981,0,1.964,0.232,2.841,0.671l0.236,0.118    C37.393,50.933,37.698,51,37.998,51c0.734,0,1.44-0.405,1.791-1.106c0.494-0.988,0.094-2.189-0.895-2.684l-0.236-0.118    C37.229,46.378,35.627,46,34.028,46c-0.519,0-1.037-0.064-1.541-0.19l-2.318-0.579c0.229-0.934,0.717-1.806,1.486-2.575    C32.743,41.568,34.061,41,35.485,41c0.129,0,0.26,0.005,0.391,0.014c1.85,0.133,3.812,1.189,5.679,3.055    c2.432,2.432,4.014,5.41,4.665,7.931H43c-1.104,0-2,0.896-2,2s0.896,2,2,2h3.29c-0.123,0.314-0.282,0.588-0.492,0.798    C43.928,58.667,37.561,57.045,33.069,52.555z M50.563,54.488c0.027-2.438-0.789-5.181-2.159-7.768C50.043,45.287,51,43.213,51,41    c0-1.104-0.896-2-2-2s-2,0.896-2,2c0,0.845-0.308,1.638-0.829,2.273c-0.56-0.716-1.157-1.4-1.789-2.032    c-0.545-0.545-1.105-1.029-1.673-1.473C43.665,37.359,45.543,36,48,36c3.701,0,6,3.065,6,8C54,48.369,52.415,52.394,50.563,54.488    z"/><path d="M60.625,12.882c-0.526-0.52-1.298-0.707-2.003-0.486c-0.632,0.198-1.31,0.298-2.012,0.298c-3.859,0-7-3.14-7-7    c0-0.703,0.101-1.38,0.299-2.013c0.221-0.706,0.033-1.477-0.486-2.003c-0.521-0.526-1.292-0.723-1.997-0.51    c-4.602,1.38-7.815,5.708-7.815,10.525c0,6.065,4.935,11,11,11c4.817,0,9.146-3.214,10.525-7.815    C61.348,14.171,61.151,13.403,60.625,12.882z M50.61,18.695c-3.859,0-7-3.14-7-7c0-1.887,0.773-3.655,2.051-4.941    c0.501,5.222,4.668,9.389,9.89,9.89C54.266,17.921,52.497,18.695,50.61,18.695z"/></g></g><g id="Dawn"/><g id="Infaq"/><g id="Sajadah"/><g id="Kaaba"/><g id="Mosque_00000003803682752247596670000011302116631847618953_"/><g id="Fasting"/><g id="Quran_00000024699989614576326310000007593149211605186702_"/><g id="Calendar"/><g id="Bedug"/><g id="Lantern"/><g id="Quran"/><g id="Mosque"/></svg>