<?xml version="1.0" standalone="no"?>
<!DOCTYPE svg PUBLIC "-//W3C//DTD SVG 1.0//EN" "http://www.w3.org/TR/2001/REC-SVG-20010904/DTD/svg10.dtd">
<svg version="1.1" id="0" xmlns="http://www.w3.org/2000/svg" xmlns:xlink="http://www.w3.org/1999/xlink" x="0px" y="0px" width="528" viewBox="0 0 528 513" enable-background="new 0 0 528 513" xml:space="preserve" xmlns:inkscape ="http://www.inkscape.org/namespaces/inkscape" >
<g isVisble = "True" inkscape:label = "meqdar-al-zakat-logo Default Layer" inkscape:groupmode = "layer" ><path style="fill:#388046;stroke:none; stroke-width:1" d="m115.14,455.4c-1.72,-1.34 -3.44,-2.67 -5.66,-4.38c-8.64,-7.34 -16.78,-14.31 -24.92,-21.27c-12.52,-11.32 -21.93,-25.15 -32.13,-38.43c-5.05,-6.57 -9.09,-13.77 -12.58,-20.75c-9.7,-19.43 -18.35,-39.53 -22.53,-61.08c-1.52,-7.84 -2.03,-15.88 -2.91,-23.85c-0.82,-7.45 -2.24,-14.93 -2.15,-22.38c0.38,-30.04 4.11,-59.62 14.11,-88.81c0.63,-1.88 1.01,-3.17 1.38,-4.45c1.1,-2.69 2.21,-5.37 3.58,-8.64c0.71,-1.84 1.15,-3.1 1.59,-4.36c1.04,-2.1 2.09,-4.19 3.23,-6.69c0.1,-0.4 0.1,-0.56 0.1,-0.56c0.72,-1.28 1.45,-2.56 2.48,-4.42c0.89,-1.83 1.46,-3.08 2.04,-4.33c0.77,-1.32 1.54,-2.64 2.36,-4.28c10.49,-14.92 20.01,-30.29 31.57,-43.94c18.87,-22.28 42.74,-38.43 69.08,-50.89c2.39,-1.13 5.08,-1.63 7.64,-2.43c0.47,0.63 0.94,1.26 1.41,1.9c-2,2.34 -3.77,4.92 -6.03,6.97c-8.75,7.95 -17.88,15.51 -26.46,23.63c-40.07,37.93 -68.13,82.97 -79.91,137.31c-8.23,37.97 -8.11,76.04 4.23,113.06c16.76,50.27 47.49,90.36 91.65,120.1c41.32,27.83 87.02,40.79 136.45,39.44c93.93,-2.56 176.38,-59.45 209.2,-148.78c10.14,-27.59 18.54,-55.59 20.14,-85.17c0.14,-2.59 -1.41,-5.27 -2.17,-7.91c-1.05,2.39 -2.62,4.7 -3.06,7.2c-8.01,45.94 -29.43,84.63 -66.6,112.57c-67.88,51.04 -141.4,57.62 -217.73,20.75c-49.64,-23.98 -83.21,-63.55 -101.98,-115.3c-12.58,-34.68 -13.37,-70.46 -7.17,-106.51c4.23,-24.58 11.75,-48.06 23.16,-70.37c19.25,-37.63 50.62,-59.27 90.65,-69.23c87.25,-21.7 163.49,-0.16 227.61,61.8c54.06,52.25 76.02,117.95 71.7,192.2c-3.42,58.79 -26.45,109.85 -66.79,153.6c-0.86,0.99 -1.32,1.58 -1.77,2.18c-1.24,1.09 -2.49,2.18 -4.16,3.69c-1.55,1.56 -2.67,2.71 -3.79,3.85c-2.96,2.54 -5.92,5.08 -9.31,8.05c-1.88,1.73 -3.33,3.03 -4.77,4.33c-3.9,2.85 -7.79,5.7 -12.19,8.92c-3.6,2.6 -6.71,4.82 -9.81,7.05c-1.54,0.84 -3.08,1.68 -5.15,2.85c-4.21,2.53 -7.9,4.74 -11.58,6.95c-2.64,1.26 -5.29,2.53 -8.12,4.08c-16.25,6.12 -31.99,13.13 -48.43,17.56c-44.29,11.92 -88.72,11.24 -133.18,-0.41c-22.09,-5.79 -42.12,-15.76 -61.72,-26.93c-4.8,-2.73 -9.32,-5.95 -14.47,-9.32c-2.38,-1.64 -4.26,-2.9 -6.13,-4.17m269.76,-365.11c-3.3,-13.25 -10.25,-18.98 -23.67,-18.99c-63.5,-0.07 -126.99,-0.09 -190.49,-0.03c-15.06,0.02 -22.81,7.96 -22.82,22.87c-0.03,57.33 -0.01,114.66 -0.11,171.99c-0.02,9.42 2.55,18.08 6.69,26.37c8.07,16.18 19.31,30.04 32.75,41.89c51.83,45.68 112.09,53.35 176.97,37.78c15.33,-3.68 20.71,-12.22 20.72,-28.13c0.02,-49.83 0.01,-99.66 0.03,-149.49c0,-5.82 0.13,-11.65 1.05,-17.83c0.32,-1.07 0.92,-2.14 0.92,-3.21c0.05,-26.33 0.07,-52.66 -0.03,-78.99c0,-1.17 -1.15,-2.35 -2.02,-4.24l0,0z" opacity = "1.000000" transform = "matrix(1,0,0,1,-0.0001601379,5.086263E-06)" vector-effect="non-scaling-stroke" pen = "1,1" />
<path style="fill:#388046;stroke:none; stroke-width:1" d="m292.92,454.08c-3.31,-2.22 -6.48,-4.72 -10.01,-6.52c-1.49,-0.76 -4.43,-0.83 -5.47,0.14c-2.07,1.9 -0.52,3.79 1.53,5.18c2.06,1.4 3.98,2.99 6.33,4.76c-2.4,3.06 -4.69,5.98 -6.42,8.19c-5.17,-3.37 -9.77,-8.65 -14.64,-8.91c-4.78,-0.26 -9.84,4.59 -15.64,7.65c-1.11,-1.28 -3.32,-3.82 -5.78,-6.67c2.34,-1.86 4.71,-3.23 6.32,-5.22c1.03,-1.27 0.95,-3.44 1.36,-5.2c-1.72,0.03 -3.75,-0.51 -5.1,0.22c-2.75,1.49 -5.13,3.66 -7.88,5.71c-5.14,-5.49 -10.31,-10.99 -15.79,-16.84c5.59,-4.47 11.14,-8.9 16.67,-13.36c1.17,-0.94 2.43,-1.85 3.3,-3.04c0.66,-0.9 0.76,-2.22 1.11,-3.35c-1.24,-0.15 -2.72,-0.8 -3.68,-0.35c-2.39,1.12 -4.63,2.62 -6.78,4.19c-4.96,3.64 -9.82,7.4 -15.16,11.44c-4.56,-4.38 -9.02,-8.58 -13.39,-12.89c-2.34,-2.3 -4.6,-3.13 -7.62,-0.04c5.45,5.82 10.83,11.57 16.59,17.73c-5.21,4.27 -10.06,8.25 -14.74,12.09c-5.17,-3.96 -10.02,-7.67 -16.2,-12.4c-0.44,-5.86 -1.03,-13.78 -1.68,-22.6c7.23,-1.29 14.33,-3.31 21.51,-3.67c12.64,-0.63 25.32,-0.3 37.99,-0.27c5.64,0.01 7.6,1.5 12.99,9.33c-3.63,4.26 -7.36,8.65 -11.63,13.67c5.69,5.4 11.36,11.47 17.83,16.53c1.98,1.55 7.15,1.67 9.08,0.16c6.75,-5.29 12.72,-11.57 18.74,-17.25c-2.55,-2.7 -4.73,-4.86 -6.74,-7.16c-1.95,-2.22 -3.73,-4.58 -5.62,-6.93c4.8,-6.81 11.07,-8.94 19.85,-8.39c13.4,0.85 26.93,-0.39 40.41,-0.57c1.77,-0.02 3.63,0.8 5.32,1.53c3.99,1.72 7.91,3.62 12.66,5.82c-1.06,5.61 -2.35,12.56 -3.73,19.48c-0.15,0.75 -0.68,1.62 -1.3,2.04c-5.09,3.52 -10.23,6.95 -15.75,10.67c-4.78,-3.43 -10.17,-7.29 -16.19,-11.61c3.67,-3.74 7.14,-7.22 10.53,-10.77c1.61,-1.68 3.28,-3.37 4.5,-5.33c0.63,-1.01 0.34,-2.61 0.47,-3.94c-1.48,0.18 -3.41,-0.18 -4.36,0.62c-4.97,4.17 -9.7,8.64 -14.52,12.99c-0.48,0.44 -1.05,0.78 -1.61,1.19c-6,-4.36 -11.9,-8.68 -17.84,-12.94c-1.21,-0.87 -2.47,-1.86 -3.86,-2.23c-1.11,-0.3 -2.45,0.27 -3.69,0.45c0.35,1.17 0.34,2.75 1.12,3.43c3.51,3.05 7.21,5.9 10.91,8.72c3.03,2.31 6.16,4.5 9.37,6.83c-4.05,4.08 -8.03,7.85 -11.69,11.91c-1.13,1.26 -1.36,3.32 -2,5.41c0,0.39 0.05,0.33 0.05,0.33z" opacity = "1.000000" vector-effect="non-scaling-stroke" pen = "1,1" />
<path style="fill:#388046;stroke:none; stroke-width:1" d="m153.35,444.77c-13.36,-9.68 -26.4,-19.17 -39.45,-28.63c-2.41,-1.75 -3.03,-3.66 -2.25,-6.79c1.56,-6.29 2.51,-12.73 3.43,-19.16c0.22,-1.54 -0.74,-4.65 -1.08,-4.64c-2.59,0.08 -5.11,0.4 -5.5,4.13c-0.6,5.75 -1.79,11.45 -2.73,17.17c-4.55,-4.71 -8.93,-9.23 -13.46,-13.91c7.86,-5.02 16.36,-10.44 24.09,-15.37c6.08,3.72 11.45,6.7 16.45,10.2c1.92,1.34 3.66,3.64 4.38,5.86c1.43,4.36 2.09,8.97 3.05,13.41c-6.83,2.8 -15.3,-2.79 -20.86,3.75c0.05,0.78 0.11,1.56 0.16,2.33c3,0.26 5.99,0.59 9,0.77c2.33,0.14 4.66,0.12 6.99,0.13c7.32,0.03 11.01,5.33 9.04,12.7c-0.7,2.6 -3.2,5.41 0.48,8.29c1.79,-1.99 3.52,-3.93 5.68,-6.33c2.2,5.89 4.26,11.39 6.71,17.95c-1.96,-0.84 -2.89,-1.24 -4.14,-1.84z" opacity = "1.000000" vector-effect="non-scaling-stroke" pen = "1,1" />
<path style="fill:#388046;stroke:none; stroke-width:1" d="m105.77,314.77c4.54,-4.12 8.83,-8 13.1,-11.88c5.77,6.45 5.76,6.89 0.37,12.78c-2.24,2.45 -4.43,4.96 -6.55,7.51c-1.05,1.26 -1.93,2.68 -3.33,4.67c6.88,4.71 8.46,16.77 20.98,12.97c0.88,4.91 1.87,9.44 2.4,14.02c0.15,1.3 -0.68,3.27 -1.72,4.04c-4.66,3.47 -9.51,6.7 -14.41,9.84c-0.92,0.59 -2.64,0.9 -3.5,0.43c-7.13,-3.87 -14.14,-7.96 -21.68,-12.26c1.61,-1.52 2.96,-2.79 4.27,-4.02c4.13,1.57 6.45,8.21 13.25,2.67c-8.04,-6.91 -15.95,-13.71 -24.27,-20.85c8.08,-7.63 14.45,-13.65 21.08,-19.91z" opacity = "1.000000" vector-effect="non-scaling-stroke" pen = "1,1" />
<path style="fill:#388046;stroke:none; stroke-width:1" d="m105.47,294.7c1.1,-0.83 1.91,-1.42 2.64,-2.1c0.35,-0.32 0.53,-0.82 0.81,-1.29c-5.49,-12.22 -16.39,-19.9 -25.41,-29.85c4.63,-4.2 8.98,-8.15 13.29,-12.06c6.06,15.69 12.19,31.55 18.53,47.95c-10.85,10.35 -22.39,21.35 -34.25,32.66c-4.41,-4.79 -8.88,-9.63 -13.22,-14.35c4.19,-5.9 8.11,-11.63 12.31,-17.16c0.71,-0.93 2.58,-1.28 3.94,-1.34c4.49,-0.2 9.01,0.08 13.49,-0.28c2.55,-0.21 5.03,-1.29 7.87,-2.19z" opacity = "1.000000" vector-effect="non-scaling-stroke" pen = "1,1" />
<path style="fill:#388046;stroke:none; stroke-width:1" d="m408.7,383.76c3.08,-1.69 5.84,-3.22 8.9,-4.91c0.47,1.04 1.36,2.05 1.14,2.68c-3.05,9.03 1.35,17.46 2.12,26.15c0.29,3.24 0,5.59 -2.58,7.94c-12.71,11.55 -26.26,21.87 -42.39,29.62c1.75,-5.44 3.51,-10.89 5.24,-16.27c0.8,0.16 0.99,0.15 1.12,0.23c1.89,1.18 3.76,2.36 5.64,3.55c-0.12,-2.12 0.14,-4.35 -0.44,-6.34c-1.68,-5.76 2.97,-12.4 8.97,-12.46c4.16,-0.05 8.38,0.22 12.45,-0.41c1.77,-0.27 3.25,-2.44 4.86,-3.75c-1.62,-0.7 -3.22,-1.93 -4.87,-2.01c-5.14,-0.26 -10.29,-0.1 -16.19,-0.1c2.57,-10.06 3.81,-20.27 16.01,-23.93z" opacity = "1.000000" vector-effect="non-scaling-stroke" pen = "1,1" />
<path style="fill:#388046;stroke:none; stroke-width:1" d="m51.98,223.11c-6.8,-6.64 -6.92,-7.14 -3.75,-14.87c8.04,6.67 16.08,13.25 23.95,20.04c0.81,0.7 0.94,2.74 0.68,4.02c-2.08,10 -2.14,9.98 -12.03,10.97c-1.82,0.18 -3.62,0.48 -6.84,0.91c6.83,6.25 12.96,11.85 19,17.38c-3.65,3.65 -7.12,7.14 -9.86,9.88c-6.3,-5.74 -12.91,-11.51 -19.19,-17.62c-2.29,-2.23 -1.04,-12.7 1.48,-16.14c2.25,-3.07 4.46,-6.19 7.01,-9c1.86,-2.06 1.63,-3.59 -0.44,-5.56z" opacity = "1.000000" vector-effect="non-scaling-stroke" pen = "1,1" />
<path style="fill:#388046;stroke:none; stroke-width:1" d="m81.59,185.3c0.82,3.27 1.48,6.18 2.16,9.21c-11.16,0 -21.18,0 -31.7,0c1.73,-6.94 2.36,-13.67 8.28,-17.98c1.12,-0.82 2.61,-1.32 4,-1.57c3.05,-0.55 6.2,-0.6 9.2,-1.32c3.31,-0.79 6.38,-2.74 9.84,-0.09c0.57,0.44 3.69,-0.9 3.77,-1.62c0.44,-3.97 3.24,-4.51 6.83,-5.35c-0.83,7.44 -1.62,14.5 -2.42,21.57c-2.66,-4.82 -4.07,-10.38 -11.94,-8.38c0.66,1.86 1.24,3.52 1.99,5.53z" opacity = "1.000000" vector-effect="non-scaling-stroke" pen = "1,1" />
<path style="fill:#388046;stroke:none; stroke-width:1" d="m103.07,115.98c1.1,-0.41 1.83,-0.69 3.32,-1.26c-1.16,4.25 -2.19,7.86 -3.14,11.49c-2.1,8.05 -4.53,16.03 -6.11,24.18c-1.18,6.05 -4.61,9.23 -10.76,11.18c-2.36,-9.14 -5.91,-18.13 -6.47,-27.31c-0.23,-3.81 5.35,-8.73 9.31,-11.83c3.81,-2.99 8.94,-4.29 13.86,-6.46z" opacity = "1.000000" vector-effect="non-scaling-stroke" pen = "1,1" />
<path style="fill:#388046;stroke:none; stroke-width:1" d="m208,403.26c-4.97,0 -9.44,0 -14.52,0c-0.96,-8.36 -1.94,-16.81 -2.85,-24.71c17.31,8.1 34.5,16.15 52.8,24.71c-12.14,0 -23.54,0 -35.43,0z" opacity = "1.000000" vector-effect="non-scaling-stroke" pen = "1,1" />
<path style="fill:#388046;stroke:none; stroke-width:1" d="m185.92,397.84c0.84,8.32 0.84,8.32 -6.22,9.57c-0.35,-3.05 -0.97,-6.07 -0.99,-9.1c-0.04,-4.91 -1.87,-8.7 -6.15,-11.07c-5.16,-2.86 -6.65,-7.1 -6.04,-12.8c0.48,-4.56 0.1,-9.21 0.1,-14.78c5.61,4.37 10.58,8.06 15.28,12.06c1.06,0.9 1.51,2.86 1.7,4.41c0.87,7.08 1.54,14.18 2.32,21.71z" opacity = "1.000000" vector-effect="non-scaling-stroke" pen = "1,1" />
<path style="fill:#388046;stroke:none; stroke-width:1" d="m439.85,385.28c-5.13,-3.39 -9.95,-6.56 -15.27,-10.07c10.73,-9.48 23.98,-11.65 36.98,-15.26c-5.2,8.46 -10.4,16.92 -15.59,25.4c-1.89,3.1 -3.84,1.45 -6.12,-0.07z" opacity = "1.000000" vector-effect="non-scaling-stroke" pen = "1,1" />
<path style="fill:#388046;stroke:none; stroke-width:1" d="m83.09,360.71c8.51,4.38 17.01,8.77 26.35,13.58c-7.7,4.96 -14.5,9.34 -21.92,14.12c-3.6,-5.47 -7.08,-10.47 -10.18,-15.7c-0.59,-1 0.06,-3.01 0.61,-4.37c0.8,-1.98 2.03,-3.79 3.45,-6.05c0.82,-0.78 1.25,-1.18 1.69,-1.58z" opacity = "1.000000" vector-effect="non-scaling-stroke" pen = "1,1" />
<path style="fill:#388046;stroke:none; stroke-width:1" d="m77.02,267.84c1.14,-0.29 2.41,-0.73 2.83,-0.31c7.23,7.22 14.35,14.55 21.5,21.86c-0.25,0.62 -0.51,1.24 -0.76,1.85c-6.36,0 -12.73,0.06 -19.09,-0.06c-1.03,-0.02 -2.34,-0.57 -3.03,-1.32c-3.7,-4 -7.24,-8.15 -11.26,-12.73c3.32,-3.14 6.44,-6.08 9.82,-9.29z" opacity = "1.000000" vector-effect="non-scaling-stroke" pen = "1,1" />
<path style="fill:#388046;stroke:none; stroke-width:1" d="m138.66,351.2c-1.39,-7.12 -2.68,-13.85 -4.03,-20.89c-4.23,2.11 -7.71,5.33 -10.09,4.65c-2.99,-0.85 -5.08,-4.88 -7.99,-8c3.84,-3.18 7.38,-6.12 11.32,-9.39c-0.55,-0.41 0.19,-0.06 0.66,0.52c5.43,6.73 10.98,13.38 16.14,20.32c1.55,2.09 2.39,4.95 2.82,7.57c0.54,3.26 -4.16,8.03 -7.38,7.81c-0.49,-0.03 -0.89,-1.43 -1.44,-2.6z" opacity = "1.000000" vector-effect="non-scaling-stroke" pen = "1,1" />
<path style="fill:#388046;stroke:none; stroke-width:1" d="m366.18,444.63c0.74,-1.43 1.48,-2.86 2.74,-5.31c-5.39,0 -9.45,0 -14.36,0c1.65,-7.14 2.39,-13.85 4.84,-19.85c2.15,-5.26 7.58,-1.53 11.51,-1.92c2.65,-0.26 5.58,0.27 5.99,3.79c0.14,1.23 -0.42,2.59 -0.87,3.82c-2.32,6.39 -4.71,12.75 -7.63,19.45c-1.11,0.23 -1.67,0.12 -2.22,0.02z" opacity = "1.000000" transform = "matrix(1,0,0,1,-0.2222224,0)" vector-effect="non-scaling-stroke" pen = "1,1" />
<path style="fill:#388046;stroke:none; stroke-width:1" d="m162.63,441.15c-2.26,-5.75 -4.41,-11.14 -6.41,-16.6c-1.78,-4.87 -0.5,-6.87 4.5,-7.31c3.94,-0.35 7.9,-0.62 12.44,-0.97c0.86,7.73 1.69,15.22 2.59,23.24c-1.9,0 -3.21,-0.19 -4.44,0.04c-2.86,0.53 -5.68,1.27 -8.69,1.6z" opacity = "1.000000" vector-effect="non-scaling-stroke" pen = "1,1" />
<path style="fill:#388046;stroke:none; stroke-width:1" d="m134.81,381.14c-4.52,-2.48 -8.71,-4.78 -13.65,-7.5c4.56,-2.97 8.51,-5.54 11.88,-7.74c2.76,2.61 4.96,5.09 7.56,7.05c4.24,3.19 8.61,6.28 13.19,8.97c4.99,2.93 7.72,6.6 5.64,13.08c-8.03,-4.53 -16.16,-9.11 -24.61,-13.86z" opacity = "1.000000" vector-effect="non-scaling-stroke" pen = "1,1" />
<path style="fill:#388046;stroke:none; stroke-width:1" d="m292.84,454.17c5.16,1.17 7.78,-2.79 10.85,-5.64c7.73,-7.17 7.68,-7.23 16,-0.8c2.5,1.93 5,3.85 8.09,6.24c-3.51,3.01 -6.65,6.15 -10.27,8.55c-1.19,0.79 -3.66,-0.23 -5.51,-0.61c-3.94,-0.82 -7.97,-1.43 -11.74,-2.78c-2.56,-0.92 -4.71,-2.94 -7.2,-4.76c-0.15,-0.29 -0.2,-0.22 -0.24,-0.2z" opacity = "1.000000" vector-effect="non-scaling-stroke" pen = "1,1" />
<path style="fill:#388046;stroke:none; stroke-width:1" d="m51.22,299.7c-0.1,-1.83 -0.6,-3.83 0.19,-4.8c3.41,-4.22 7.19,-8.13 11.2,-12.56c3.53,4.03 6.98,7.41 9.66,11.32c0.96,1.41 0.84,4.59 -0.13,6.09c-2.5,3.85 -5.75,7.2 -9.02,11.14c-4.02,-3.74 -7.87,-7.32 -11.9,-11.19z" opacity = "1.000000" vector-effect="non-scaling-stroke" pen = "1,1" />
<path style="fill:#388046;stroke:none; stroke-width:1" d="m265.82,426.12c1.51,-1.31 2.73,-2.36 4.35,-3.77c2.07,3.01 4.11,5.59 5.66,8.44c0.52,0.95 0.04,2.65 -0.39,3.87c-0.3,0.86 -1.28,1.48 -1.95,2.21c-9.52,10.3 -13.97,9.92 -21.72,-2.06c-0.66,-1.02 -0.67,-3.19 -0.01,-4.18c1.71,-2.57 3.97,-4.77 5.15,-6.14c3.56,0.78 6.08,1.33 8.9,1.64z" opacity = "1.000000" vector-effect="non-scaling-stroke" pen = "1,1" />
<path style="fill:#388046;stroke:none; stroke-width:1" d="m214.73,462.92c-4.33,-2.6 -8.29,-5.32 -12.75,-8.39c4.88,-4.35 8.81,-8.14 13.1,-11.44c0.9,-0.69 3.85,-0.19 4.69,0.77c3.93,4.53 7.45,9.4 11.49,13.88c-0.31,1.06 -1.71,3.06 -6.17,1.63c-2.68,-0.86 -6.62,2.15 -10.36,3.55z" opacity = "1.000000" vector-effect="non-scaling-stroke" pen = "1,1" />
<path style="fill:#388046;stroke:none; stroke-width:1" d="m372.15,410.42c-3.83,0.13 -7.27,0.36 -11.09,0.61c-0.4,-4.14 0.22,-6.94 5.05,-8.4c7.87,-2.39 15.47,-5.64 24.1,-8.87c-2.8,8.08 -5.32,15.38 -7.96,23.01c-3.48,-2.24 -6.6,-4.24 -10.11,-6.35z" opacity = "1.000000" vector-effect="non-scaling-stroke" pen = "1,1" />
<path style="fill:#388046;stroke:none; stroke-width:1" d="m73.69,336.65c-3.36,3.69 -6.47,7.12 -10.29,11.33c-3.04,-5.88 -5.55,-10.51 -7.77,-15.28c-0.42,-0.9 -0.04,-2.63 0.62,-3.49c2.18,-2.9 4.64,-5.58 7.28,-8.68c4.68,4.25 9.05,8.23 13.65,12.41c-1,1.06 -2.12,2.26 -3.48,3.71z" opacity = "1.000000" vector-effect="non-scaling-stroke" pen = "1,1" />
<path style="fill:#388046;stroke:none; stroke-width:1" d="m71.76,219.26c-6.24,-5.4 -12.2,-10.57 -18.16,-15.74c0.2,-0.41 0.41,-0.82 0.61,-1.24c8.89,0 17.78,0 27.06,0c-1.72,6.61 -3.42,13.11 -5.24,20.08c-1.65,-1.19 -2.82,-2.04 -4.27,-3.11z" opacity = "1.000000" vector-effect="non-scaling-stroke" pen = "1,1" />
<path style="fill:#388046;stroke:none; stroke-width:1" d="m159.76,365.01c0,4.44 0,8.4 0,13.75c-6.26,-4.7 -11.82,-8.64 -17,-13.03c-0.69,-0.59 -0.05,-4.05 1.02,-5.14c1.93,-1.94 4.87,-2.84 6.98,-4.65c1.84,-1.57 3.11,-3.8 4.89,-6.07c3.06,1.61 4.68,4.76 4.13,9.19c-0.23,1.79 -0.03,3.64 -0.03,5.95z" opacity = "1.000000" vector-effect="non-scaling-stroke" pen = "1,1" />
<path style="fill:#388046;stroke:none; stroke-width:1" d="m365.77,444.58c0.97,0.15 1.52,0.26 2.51,0.39c1.22,3.11 -0.02,5.21 -2.77,6.53c-5.55,2.65 -11.01,5.51 -16.7,7.82c-5.31,2.15 -6.58,-3.7 -10.15,-5.36c4.02,-6.1 8.79,-9.81 16.24,-9.14c3.45,0.31 6.98,-0.17 10.88,-0.25z" opacity = "1.000000" vector-effect="non-scaling-stroke" pen = "1,1" />
<path style="fill:#388046;stroke:none; stroke-width:1" d="m171.02,444.91c8.55,-0.01 16.78,-0.42 21.19,8.52c-5.91,7.3 -6.31,7.42 -14.99,3.52c-3.18,-1.43 -6.58,-2.61 -9.34,-4.65c-2.05,-1.51 -3.22,-4.21 -5.52,-7.4c3.99,0 6.08,0 8.66,0.01z" opacity = "1.000000" vector-effect="non-scaling-stroke" pen = "1,1" />
<path style="fill:#388046;stroke:none; stroke-width:1" d="m83.01,222.89c1.98,-7.2 3.87,-14.01 5.76,-20.82c0.48,-0.06 0.96,-0.11 1.45,-0.17c0.56,0.95 1.51,1.86 1.62,2.85c1.12,11.05 2.12,22.12 3.26,34.4c-4.51,-4.05 -8.6,-7.44 -12.27,-11.23c-0.76,-0.78 0.02,-3.06 0.19,-5.03z" opacity = "1.000000" vector-effect="non-scaling-stroke" pen = "1,1" />
<path style="fill:#388046;stroke:none; stroke-width:1" d="m72.26,167.23c-3.56,0.84 -6.71,1.59 -9.86,2.34c-0.45,-0.42 -0.89,-0.84 -1.34,-1.26c4.04,-8.33 8.08,-16.65 12.12,-24.98c0.55,0.13 1.1,0.25 1.66,0.38c1.53,6.99 3.07,13.98 4.72,21.5c-2.54,0.71 -4.71,1.32 -7.29,2.02z" opacity = "1.000000" vector-effect="non-scaling-stroke" pen = "1,1" />
<path style="fill:#388046;stroke:none; stroke-width:1" d="m43.37,281.52c-0.35,-6.88 -0.65,-13.31 -0.99,-20.9c3.1,3.4 5.48,6.01 7.87,8.63c2.46,2.69 4.92,5.39 7.68,8.41c-4.16,4.7 -8.18,9.24 -13.13,14.83c-0.57,-4.42 -0.97,-7.47 -1.42,-10.97z" opacity = "1.000000" vector-effect="non-scaling-stroke" pen = "1,1" />
<path style="fill:#388046;stroke:none; stroke-width:1" d="m147.34,395.88c3.53,2.18 6.76,4.17 9.96,6.22c4.24,2.72 4.21,6.43 0.61,9.84c-2.21,2.09 -3.58,5.06 -5.33,7.64c-0.8,-0.51 -1.6,-1.01 -2.4,-1.52c-1.6,-6.98 -3.23,-13.96 -4.73,-20.97c-0.07,-0.33 1.03,-0.91 1.9,-1.21z" opacity = "1.000000" vector-effect="non-scaling-stroke" pen = "1,1" />
<path style="fill:#388046;stroke:none; stroke-width:1" d="m426.81,404.81c-0.82,-7.09 -1.58,-13.79 -2.33,-20.49c0.51,-0.32 1.01,-0.64 1.52,-0.96c4.62,3.23 9.25,6.46 15.24,10.64c-4.59,4.16 -8.72,7.92 -12.91,11.62c-0.2,0.18 -0.96,-0.27 -1.52,-0.82z" opacity = "1.000000" vector-effect="non-scaling-stroke" pen = "1,1" />
<path style="fill:#388046;stroke:none; stroke-width:1" d="m259.8,474.3c-5.68,-0.15 -6.48,-1.43 -3.82,-5.58c0.71,-1.11 1.54,-2.16 2.42,-3.14c4.32,-4.8 6.41,-4.84 10.85,-0.05c1.87,2.02 3.52,4.24 5.31,6.41c-4.56,5.07 -9.77,1.53 -14.76,2.35z" opacity = "1.000000" vector-effect="non-scaling-stroke" pen = "1,1" />
<path style="fill:#388046;stroke:none; stroke-width:1" d="m459.15,352.03c-0.47,-2.25 -1.52,-5.3 -0.44,-6.72c4.85,-6.39 10.31,-12.32 15.54,-18.41c0.47,0.23 0.94,0.45 1.41,0.68c-2.36,5.77 -4.85,11.49 -7.04,17.33c-1.62,4.32 -4.38,6.86 -9.47,7.12z" opacity = "1.000000" vector-effect="non-scaling-stroke" pen = "1,1" />
<path style="fill:#388046;stroke:none; stroke-width:1" d="m269.19,407.93c1.64,0.38 2.88,0.69 4.51,1.1c-3.58,3.61 -6.83,6.89 -10.6,10.68c-3.58,-3.76 -7.04,-7.38 -10.56,-11.07c5.56,-5.11 10.94,-1.63 16.64,-0.71z" opacity = "1.000000" vector-effect="non-scaling-stroke" pen = "1,1" />
<path style="fill:#388046;stroke:none; stroke-width:1" d="m283.81,472.95c1.66,-3.89 3.71,-7.63 5.32,-10.57c6.95,2.26 12.9,4.2 19.63,6.39c-8.23,3.8 -16.34,4.31 -24.95,4.18z" opacity = "1.000000" vector-effect="non-scaling-stroke" pen = "1,1" />
<path style="fill:#388046;stroke:none; stroke-width:1" d="m234.11,464.29c1.4,-0.9 2.48,-1.6 3.96,-2.55c2.61,3.57 5.08,6.95 7.55,10.33c-0.24,0.44 -0.49,0.87 -0.73,1.31c-7.88,-1.09 -15.76,-2.19 -23.64,-3.28c-0.02,-0.45 -0.03,-0.9 -0.05,-1.34c4.2,-1.42 8.4,-2.84 12.92,-4.46z" opacity = "1.000000" vector-effect="non-scaling-stroke" pen = "1,1" />
<path style="fill:#388046;stroke:none; stroke-width:1" d="m99.28,105.27c4.99,-5.49 9.75,-10.71 14.78,-16.23c2.86,8.97 -9.41,21.83 -19.64,21.63c1.56,-1.73 3.09,-3.43 4.86,-5.4z" opacity = "1.000000" vector-effect="non-scaling-stroke" pen = "1,1" />
<path style="fill:#388046;stroke:none; stroke-width:1" d="m81.24,350.69c-2.2,-1.79 -4.11,-3.34 -6.35,-5.17c2.3,-2.51 4.38,-4.76 6.74,-7.34c3.19,2.96 6.07,5.64 8.89,8.27c-3.16,6.35 -4.67,7.07 -9.28,4.24z" opacity = "1.000000" vector-effect="non-scaling-stroke" pen = "1,1" />
<path style="fill:#388046;stroke:none; stroke-width:1" d="m82.85,360.5c-0.19,0.62 -0.63,1.02 -1.38,1.44c-1.58,-0.04 -2.92,-0.41 -4.1,-0.13c-5.2,1.25 -9.09,-0.71 -10.39,-5.89c-0.32,-1.29 0.55,-3.09 1.35,-4.36c0.3,-0.47 2.26,-0.51 2.94,-0.02c3.87,2.79 7.57,5.8 11.58,8.95z" opacity = "1.000000" vector-effect="non-scaling-stroke" pen = "1,1" />
<path style="fill:#388046;stroke:none; stroke-width:1" d="m167.6,405.57c-0.02,-4.57 -0.02,-8.69 -0.02,-12.66c4.13,1.81 4.28,2.3 4.84,16.27c-3.53,1.91 -5.12,0.89 -4.82,-3.61z" opacity = "1.000000" vector-effect="non-scaling-stroke" pen = "1,1" />
<path style="fill:#388046;stroke:none; stroke-width:1" d="m49.98,315.04c-0.43,-2.45 -0.81,-4.5 -1.45,-7.98c4.1,3.6 7.13,6.26 10.61,9.31c-2.31,2.43 -4.3,4.52 -6.89,7.24c-0.88,-3.24 -1.55,-5.71 -2.27,-8.57z" opacity = "1.000000" vector-effect="non-scaling-stroke" pen = "1,1" />
<path style="fill:#388046;stroke:none; stroke-width:1" d="m84.72,250.35c-1.83,2.35 -3.56,4.33 -5.37,6.4c-2.58,-2.03 -4.81,-3.77 -7.03,-5.52c0.32,-0.72 0.65,-1.45 0.97,-2.17c3.84,0.31 7.68,0.61 11.43,1.3z" opacity = "1.000000" vector-effect="non-scaling-stroke" pen = "1,1" />
<path style="fill:#388046;stroke:none; stroke-width:1" d="m330.84,460.03c4.66,-3.19 5.27,1.01 7.68,3.71c-5.02,1.24 -9.38,2.32 -13.74,3.39c-0.18,-0.31 -0.37,-0.61 -0.55,-0.92c2.13,-1.98 4.25,-3.96 6.61,-6.19z" opacity = "1.000000" vector-effect="non-scaling-stroke" pen = "1,1" />
<path style="fill:#388046;stroke:none; stroke-width:1" d="m83,243.02c-1.88,0 -3.33,0 -5.49,0c0.61,-2.78 1.15,-5.19 1.85,-8.35c3.29,2.67 6.02,4.89 8.75,7.11c-0.08,0.41 -0.15,0.83 -0.23,1.24c-1.49,0 -2.97,0 -4.88,0z" opacity = "1.000000" vector-effect="non-scaling-stroke" pen = "1,1" />
<path style="fill:#388046;stroke:none; stroke-width:1" d="m195.18,460.89c1.78,-0.43 3.64,-1.26 4.75,-0.67c2.09,1.1 3.76,3.02 5.6,4.6c-0.32,0.51 -0.63,1.03 -0.95,1.54c-3.25,-0.78 -6.52,-1.51 -9.72,-2.46c-0.24,-0.07 0.03,-1.81 0.31,-3.01z" opacity = "1.000000" vector-effect="non-scaling-stroke" pen = "1,1" />
<path style="fill:#388046;stroke:none; stroke-width:1" d="m351.29,412.71c-2.34,-1.23 -4.31,-2.38 -6.28,-3.52c0.14,-0.48 0.28,-0.96 0.41,-1.43c2.78,-0.38 5.56,-0.75 9.9,-1.33c-1.65,2.87 -2.65,4.62 -4.03,6.29z" opacity = "1.000000" vector-effect="non-scaling-stroke" pen = "1,1" />
<path style="fill:#388046;stroke:none; stroke-width:1" d="m27.43,170.05c-0.05,1.24 -0.42,2.52 -1.05,4.03c0.07,-1.18 0.4,-2.58 1.05,-4.03z" opacity = "1.000000" vector-effect="non-scaling-stroke" pen = "1,1" />
<path style="fill:#388046;stroke:none; stroke-width:1" d="m32.59,157.04c-0.11,1.22 -0.55,2.48 -1.24,3.96c0.13,-1.16 0.52,-2.54 1.24,-3.96z" opacity = "1.000000" vector-effect="non-scaling-stroke" pen = "1,1" />
<path style="fill:#FBFBFB;stroke:none; stroke-width:1" d="m385.18,177.08c-0.07,5.82 -0.19,11.65 -0.19,17.47c-0.02,49.83 -0.01,99.66 -0.03,149.49c-0.01,15.91 -5.38,24.45 -20.72,28.13c-64.88,15.57 -125.14,7.9 -176.97,-37.78c-13.44,-11.85 -24.68,-25.71 -32.75,-41.89c-4.14,-8.29 -6.7,-16.95 -6.69,-26.37c0.1,-57.33 0.07,-114.66 0.11,-171.99c0.01,-14.91 7.75,-22.86 22.82,-22.87c63.5,-0.07 126.99,-0.04 190.49,0.03c13.42,0.01 20.37,5.74 23.73,19.81c0.11,29.2 0.17,57.59 0.22,85.97m-43.74,178.94c16.74,0.02 21.81,-4.96 21.84,-21.69c0.05,-27.99 0.04,-55.98 0.03,-83.96c-0.01,-20.82 0.18,-41.65 -0.28,-62.47c-0.09,-4.16 -1.95,-8.79 -4.32,-12.3c-5.8,-8.58 -14.81,-10.33 -24.64,-10.29c-33.49,0.14 -66.97,0.01 -100.46,0.01c-13.83,0 -27.66,-0.09 -41.48,0.14c-13.77,0.23 -22.89,9.56 -22.88,23.02c0.01,26.99 0.02,53.98 0.1,80.97c0.01,2.99 0.15,6.02 0.71,8.94c1.98,10.45 9.76,16.76 20.24,16.74c11.33,-0.02 22.66,0.15 33.98,-0.06c4.2,-0.08 5.58,1.45 5.52,5.52c-0.15,10.66 0.2,21.33 -0.07,31.98c-0.14,5.55 2.21,9.01 6.76,11.73c11.27,6.75 23.55,10.2 36.54,10.57c22.47,0.64 44.95,0.77 68.41,1.13m4.97,-211.3c1.67,0 3.33,0.01 5,-0.01c8.03,-0.11 11.54,-3.63 11.54,-11.64c-0.01,-8.33 0.01,-16.67 -0.13,-25c-0.17,-10.31 -5.68,-15.78 -15.83,-15.78c-54,0 -107.99,0.02 -161.99,0.05c-9.93,0.01 -15.12,5.04 -15.3,14.93c-0.12,6.66 0,13.33 0.01,20c0.01,16.06 1.33,17.39 17.24,17.39c52.83,0.02 105.66,0.04 159.47,0.06z" opacity = "1.000000" transform = "matrix(1,0,0,1,0.0001169841,0.0001233419)" vector-effect="non-scaling-stroke" pen = "1,1" />
<path style="fill:#388046;stroke:none; stroke-width:1" d="m385.6,176.9c-0.48,-28.21 -0.53,-56.59 -0.51,-85.43c0.69,0.71 1.83,1.88 1.83,3.05c0.1,26.33 0.08,52.66 0.03,78.99c0,1.07 -0.6,2.14 -1.35,3.39z" opacity = "1.000000" vector-effect="non-scaling-stroke" pen = "1,1" />
<path style="fill:#388046;stroke:none; stroke-width:1" d="m340.94,356.02c-22.97,-0.35 -45.45,-0.48 -67.92,-1.12c-12.99,-0.37 -25.26,-3.83 -36.54,-10.57c-4.55,-2.73 -6.9,-6.18 -6.76,-11.73c0.27,-10.65 -0.08,-21.32 0.07,-31.98c0.06,-4.08 -1.33,-5.6 -5.52,-5.52c-11.32,0.22 -22.66,0.04 -33.98,0.06c-10.48,0.02 -18.27,-6.29 -20.24,-16.74c-0.55,-2.92 -0.7,-5.96 -0.71,-8.94c-0.08,-26.99 -0.09,-53.98 -0.1,-80.97c0,-13.46 9.11,-22.79 22.88,-23.02c13.82,-0.23 27.65,-0.14 41.48,-0.14c33.49,0 66.97,0.13 100.46,-0.01c9.82,-0.04 18.84,1.71 24.64,10.29c2.37,3.51 4.23,8.14 4.32,12.3c0.46,20.81 0.27,41.64 0.28,62.47c0.01,27.99 0.01,55.98 -0.03,83.96c-0.03,16.73 -5.09,21.71 -22.33,21.69m-51.89,-169.53c-1.16,-0.64 -2.32,-1.82 -3.49,-1.84c-11.33,-0.15 -22.66,-0.05 -33.99,-0.16c-3,-0.03 -4.21,1.15 -4.19,4.13c0.07,10.16 0.13,20.33 -0.02,30.49c-0.05,3.22 1.38,3.95 4.23,3.93c11.16,-0.1 22.33,0.01 33.49,-0.16c1.37,-0.02 2.73,-1.23 4.85,-2.12c0.35,-0.68 1,-1.36 1.01,-2.05c0.07,-8.2 0.11,-16.4 -0.02,-24.6c-0.02,-1.08 -1.03,-2.15 -1.79,-3.91c0.07,-0.7 0.14,-1.41 0.69,-2.27c-0.16,-0.26 -0.32,-0.51 -0.77,-1.44m-0.12,109.55c-1.24,-0.59 -2.47,-1.68 -3.71,-1.69c-11.3,-0.09 -22.6,0.09 -33.9,-0.01c-3.21,-0.03 -3.94,1.39 -3.91,4.21c0.13,11.3 0.2,22.6 0.18,33.9c-0.01,3.58 1.42,4.98 5.1,4.91c10.47,-0.2 20.94,-0.25 31.41,-0.09c4.08,0.06 5.09,-1.72 5.04,-5.42c-0.15,-11.63 -0.07,-23.26 -0.2,-35.81m54.96,40.88c0.54,-1.63 1.51,-3.25 1.54,-4.88c0.15,-11.13 0.01,-22.26 0.17,-33.39c0.04,-3.19 -0.89,-4.4 -4.23,-4.34c-9.8,0.19 -19.61,0.19 -29.41,0.04c-3.67,-0.06 -5.03,1.3 -4.99,4.95c0.12,11.13 0.13,22.26 -0.06,33.39c-0.06,3.59 1.32,4.57 4.69,4.51c10.46,-0.17 20.93,-0.1 32.3,-0.29m-131.4,-152.56c-6.98,-0.02 -13.96,0.11 -20.93,-0.12c-3.54,-0.12 -4.65,1.22 -4.6,4.64c0.15,9.97 0.14,19.94 0,29.91c-0.04,2.98 0.87,4.19 3.94,4.16c11.63,-0.11 23.26,-0.12 34.89,-0.04c2.67,0.02 3.97,-0.7 3.94,-3.63c-0.13,-10.3 -0.15,-20.6 -0.07,-30.9c0.02,-3.05 -1.27,-4.15 -4.2,-4.05c-3.98,0.13 -7.97,0.04 -12.96,0.04m-20.71,92.82c11.16,-0.01 22.33,-0.08 33.49,-0.01c3.01,0.02 4.62,-0.72 4.54,-4.21c-0.22,-9.49 -0.21,-19 -0.14,-28.49c0.03,-3.29 -1.36,-4.31 -4.53,-4.28c-11,0.12 -22,0.11 -32.99,-0.04c-3.68,-0.05 -5.07,1.48 -5.05,5.05c0.05,9.16 0,18.33 -0.15,27.49c-0.05,2.85 0.84,4.5 4.83,4.49m115.14,-84.55c0,8.49 0.17,16.98 -0.08,25.46c-0.11,3.73 1.06,5 4.8,4.92c9.65,-0.21 19.31,-0.3 28.95,0c4.35,0.13 5.43,-1.55 5.35,-5.51c-0.21,-9.48 -0.28,-18.97 -0.04,-28.45c0.1,-3.98 -1.59,-4.73 -5.05,-4.67c-8.82,0.15 -17.64,0 -26.46,-0.01c-7.49,-0.01 -7.49,0 -7.47,8.28m-59.24,81.58c1.45,0.93 2.88,2.64 4.35,2.67c10.82,0.23 21.65,0.05 32.48,0.17c3.37,0.04 4.8,-1.02 4.72,-4.59c-0.21,-9.16 -0.21,-18.32 -0.12,-27.48c0.03,-3.3 -0.94,-4.86 -4.56,-4.8c-10.66,0.18 -21.32,0.17 -31.98,0.07c-3.63,-0.04 -5.06,1.35 -4.99,5.02c0.16,9.33 0.07,18.66 0.1,28.94m95.16,-33.86c-10.48,-0.01 -20.96,0.01 -31.44,-0.03c-2.62,-0.01 -4.52,0.36 -4.49,3.73c0.09,9.81 -0.1,19.63 0.07,29.44c0.02,1.16 1.58,3.29 2.46,3.3c11.91,0.22 23.82,0.15 36.08,0.15c0,-11.8 0.03,-23.08 -0.08,-34.35c-0.01,-0.72 -1.12,-1.43 -2.6,-2.25z" opacity = "1.000000" transform = "matrix(1,0,0,1,0.0002492667,0.0001101495)" vector-effect="non-scaling-stroke" pen = "1,1" />
<path style="fill:#388046;stroke:none; stroke-width:1" d="m345.92,144.73c-53.32,-0.02 -106.15,-0.04 -158.98,-0.06c-15.91,0 -17.23,-1.33 -17.24,-17.39c0,-6.67 -0.13,-13.33 -0.01,-20c0.18,-9.89 5.38,-14.92 15.3,-14.93c54,-0.03 107.99,-0.05 161.99,-0.05c10.15,0 15.66,5.47 15.83,15.78c0.14,8.33 0.12,16.67 0.13,25c0.01,8.01 -3.51,11.53 -11.54,11.64c-1.67,0.02 -3.33,0.01 -5.49,0.01z" opacity = "1.000000" vector-effect="non-scaling-stroke" pen = "1,1" />
<path style="fill:#FBFBFB;stroke:none; stroke-width:1" d="m289,296.5c0.07,12.09 -0.02,23.72 0.14,35.35c0.05,3.7 -0.96,5.49 -5.04,5.42c-10.47,-0.16 -20.94,-0.12 -31.41,0.09c-3.68,0.07 -5.1,-1.33 -5.1,-4.91c0.02,-11.3 -0.04,-22.6 -0.18,-33.9c-0.03,-2.82 0.7,-4.24 3.91,-4.21c11.3,0.11 22.6,-0.08 33.9,0.01c1.24,0.01 2.47,1.1 3.77,2.14z" opacity = "1.000000" vector-effect="non-scaling-stroke" pen = "1,1" />
<path style="fill:#F9F9F9;stroke:none; stroke-width:1" d="m343.44,337.01c-10.92,0.1 -21.38,0.03 -31.85,0.2c-3.36,0.05 -4.75,-0.93 -4.69,-4.51c0.19,-11.13 0.18,-22.26 0.06,-33.39c-0.04,-3.65 1.31,-5.01 4.99,-4.95c9.8,0.16 19.61,0.16 29.41,-0.04c3.35,-0.07 4.28,1.15 4.23,4.34c-0.16,11.13 -0.02,22.26 -0.17,33.39c-0.02,1.63 -1,3.25 -1.98,4.96z" opacity = "1.000000" vector-effect="non-scaling-stroke" pen = "1,1" />
<path style="fill:#F8F8F8;stroke:none; stroke-width:1" d="m212.99,184.36c4.49,0 8.48,0.08 12.46,-0.04c2.93,-0.09 4.22,1 4.2,4.05c-0.08,10.3 -0.06,20.6 0.07,30.9c0.04,2.94 -1.27,3.65 -3.94,3.63c-11.63,-0.08 -23.26,-0.08 -34.89,0.04c-3.08,0.03 -3.98,-1.19 -3.94,-4.16c0.15,-9.97 0.15,-19.94 0,-29.91c-0.05,-3.41 1.06,-4.75 4.6,-4.64c6.97,0.23 13.96,0.1 21.43,0.12z" opacity = "1.000000" vector-effect="non-scaling-stroke" pen = "1,1" />
<path style="fill:#FAFAFA;stroke:none; stroke-width:1" d="m289.34,188.09c-0.07,0.7 -0.14,1.41 -0.2,2.88c0.02,10.52 0.03,20.27 0.04,30.02c-1.36,0.66 -2.72,1.87 -4.1,1.89c-11.16,0.17 -22.33,0.06 -33.49,0.16c-2.85,0.03 -4.27,-0.71 -4.23,-3.93c0.15,-10.16 0.09,-20.33 0.02,-30.49c-0.02,-2.97 1.19,-4.15 4.19,-4.13c11.33,0.11 22.66,0.01 33.99,0.16c1.17,0.02 2.33,1.2 3.55,2.41c0.06,0.57 0.23,1.03 0.23,1.03z" opacity = "1.000000" transform = "matrix(1,0,0,1,-0.2857213,0)" vector-effect="non-scaling-stroke" pen = "1,1" />
<path style="fill:#F9F9F9;stroke:none; stroke-width:1" d="m191.32,277.17c-3.52,0.02 -4.41,-1.63 -4.36,-4.48c0.15,-9.16 0.2,-18.33 0.15,-27.49c-0.02,-3.57 1.37,-5.1 5.05,-5.05c11,0.14 22,0.15 32.99,0.04c3.17,-0.03 4.56,0.98 4.53,4.28c-0.07,9.5 -0.08,19 0.14,28.49c0.08,3.49 -1.53,4.23 -4.54,4.21c-11.16,-0.07 -22.33,0 -33.96,0z" opacity = "1.000000" vector-effect="non-scaling-stroke" pen = "1,1" />
<path style="fill:#F9F9F9;stroke:none; stroke-width:1" d="m306.92,192.15c-0.01,-7.79 -0.01,-7.8 7.47,-7.8c8.82,0.01 17.64,0.15 26.46,0.01c3.46,-0.06 5.15,0.7 5.05,4.67c-0.24,9.48 -0.16,18.97 0.04,28.45c0.09,3.97 -1,5.65 -5.35,5.51c-9.64,-0.3 -19.3,-0.2 -28.95,0c-3.74,0.08 -4.91,-1.19 -4.8,-4.92c0.25,-8.48 0.08,-16.97 0.08,-25.94z" opacity = "1.000000" vector-effect="non-scaling-stroke" pen = "1,1" />
<path style="fill:#FCFCFC;stroke:none; stroke-width:1" d="m247.67,273.74c-0.02,-9.8 0.07,-19.13 -0.09,-28.46c-0.06,-3.67 1.36,-5.06 4.99,-5.02c10.66,0.11 21.32,0.11 31.98,-0.07c3.62,-0.06 4.59,1.49 4.56,4.8c-0.09,9.16 -0.1,18.33 0.12,27.48c0.08,3.57 -1.35,4.63 -4.72,4.59c-10.83,-0.13 -21.66,0.06 -32.48,-0.17c-1.47,-0.03 -2.9,-1.74 -4.36,-3.15z" opacity = "1.000000" vector-effect="non-scaling-stroke" pen = "1,1" />
<path style="fill:#F8F8F8;stroke:none; stroke-width:1" d="m343.28,240.4c1.04,0.77 2.16,1.48 2.16,2.19c0.11,11.27 0.08,22.54 0.08,34.35c-12.26,0 -24.18,0.07 -36.08,-0.15c-0.88,-0.02 -2.44,-2.14 -2.46,-3.3c-0.17,-9.81 0.02,-19.63 -0.07,-29.44c-0.03,-3.37 1.87,-3.74 4.49,-3.73c10.48,0.04 20.96,0.03 31.88,0.09z" opacity = "1.000000" vector-effect="non-scaling-stroke" pen = "1,1" />
<path style="fill:#388046;stroke:none; stroke-width:1" d="m289.56,220.87c-0.39,-9.64 -0.4,-19.39 -0.31,-29.57c0.65,0.65 1.66,1.72 1.67,2.8c0.13,8.2 0.09,16.4 0.02,24.6c-0.01,0.69 -0.66,1.37 -1.39,2.16z" opacity = "1.000000" vector-effect="non-scaling-stroke" pen = "1,1" />
<path style="fill:#080808;stroke:none; stroke-width:1" d="m289.58,188.01c-0.24,0.08 -0.41,-0.38 -0.33,-0.61c0.24,0.02 0.41,0.28 0.33,0.61z" opacity = "1.000000" vector-effect="non-scaling-stroke" pen = "1,1" />
</g>
</svg>
