<?xml version="1.0" standalone="no"?>
<!DOCTYPE svg PUBLIC "-//W3C//DTD SVG 1.0//EN" "http://www.w3.org/TR/2001/REC-SVG-20010904/DTD/svg10.dtd">
<svg xmlns="http://www.w3.org/2000/svg" height="513.6" version="1.1" viewBox="0 0 513.6 513.6" width="513.6" xmlns:inkscape ="http://www.inkscape.org/namespaces/inkscape" >
<g isVisble = "True" inkscape:label = "meqdar-al-zakat-logo-2 Default Layer" inkscape:groupmode = "layer" ><circle style="fill:#FFFFFF;stroke:#FFFFFF; stroke-width:1" cx = "100" cy = "100" r = "0.5208333in" transform = "matrix(4.644222,0,0,4.644222,-203.0637,-216.4922)" vector-effect="non-scaling-stroke" pen = "4.644298,4.6443" />
<path style="fill:#388046;stroke:#388046; stroke-width:1" d="m213.95,23.71c11.55,-3.08 23.32,-5.71 35.3,-6.28c11.26,0.01 22.54,-1.49 33.78,-0.23c16.76,0.2 33.26,3.91 49.29,8.54c21.63,7.22 42.75,16.49 61.7,29.3c15.97,10.97 31.28,23.15 44.16,37.71c12.14,13.14 22.62,27.76 31.96,43c5.26,9.66 9.65,19.76 13.94,29.88c7.73,20.66 12.78,42.33 14.75,64.31c1,6.31 0.58,12.73 1.35,19.06c1.02,31.21 -4.45,62.58 -15.53,91.77c-14.03,35.5 -35.6,68.33 -64.39,93.58c-7.16,6.22 -14.57,12.15 -22.25,17.71c-16.15,10.83 -33.38,20.1 -51.49,27.22c-34.94,13.27 -72.89,18.61 -110.12,15.56c-40.98,-2.23 -80.7,-16.95 -114.82,-39.46c-26.99,-17.67 -50.66,-40.49 -69.01,-67.04c-17.99,-25.27 -30.6,-54.38 -36.63,-84.81c-1.38,-9.48 -3.56,-18.91 -3.62,-28.53c-1.51,-20.13 -0.61,-40.46 2.61,-60.38c2.65,-19.99 9.25,-39.23 17.2,-57.68c9.91,-22.33 23.56,-42.89 39.71,-61.17c3.69,-4.57 8.1,-8.48 12.49,-12.36c11.71,-10.61 24.51,-20 38.22,-27.87c6.38,-3.61 12.52,-7.74 19.38,-10.41c1.98,-0.84 4.15,-0.71 6.25,-0.72c-1.38,3.87 -4.81,6.36 -7.63,9.14c-5.45,5.21 -10.99,10.33 -16.81,15.13c-14.26,12.39 -27.34,26.2 -38.56,41.42c-15.51,20.66 -29.03,43.06 -37.71,67.49c-11.08,31.37 -16.22,64.98 -13.59,98.21c2.25,19.3 5.15,38.92 13.49,56.67c6.92,17.14 15.95,33.39 26.71,48.4c15.05,19.75 32.47,37.93 53.13,51.87c22.57,15.76 47.83,27.94 74.74,34.07c23.4,6.31 47.85,8 71.97,6.33c28.03,-3.12 56.41,-8.62 81.62,-21.77c15.81,-7.32 30.64,-16.67 44.06,-27.77c10.72,-8.86 21.16,-18.26 29.56,-29.4c9.93,-11.18 17.61,-24.16 24.54,-37.34c7.47,-13.13 12.45,-27.45 17.71,-41.56c3.46,-10.34 6.19,-20.91 9.13,-31.4c3.5,-15.26 5.97,-30.86 6.24,-46.54c-1.08,0.11 -2.16,0.22 -3.23,0.32c-3.31,7.29 -3.76,15.41 -5.99,23.02c-6.73,27.84 -21.16,53.43 -40.07,74.8c-7.35,8.04 -15.79,14.95 -24.14,21.91c-8.6,7.14 -18.38,12.65 -28.28,17.77c-22.29,11.54 -46.79,19.17 -71.91,20.71c-11.36,1.18 -22.82,0.56 -34.22,0.5c-34.32,-2.54 -67.46,-15.19 -96.02,-34.17c-23.03,-14.47 -42.28,-34.62 -56.37,-57.83c-16.16,-24.61 -26.64,-53.07 -29.64,-82.38c-1.19,-15.73 -1.99,-31.63 0.42,-47.29c1.94,-16.11 5.25,-32.06 10.07,-47.55c4.74,-16.31 12.26,-31.63 20.64,-46.35c2.95,-5.44 7.18,-10.01 10.99,-14.84c6.29,-8.38 14.62,-14.96 23.22,-20.8c16.01,-9.71 33.5,-17.03 51.7,-21.47l0,0z" opacity = "1.00" data-index = "1" transform = "matrix(1,0,0,1,0,0)" vector-effect="non-scaling-stroke" pen = "1,1" />
<path style="fill:#FEFEFE;stroke:#FEFEFE; stroke-width:0.25" d="m158.59,76.21c3.09,-0.65 6.25,-0.86 9.41,-0.84c60.02,-0.09 120.04,0.09 180.06,0c4.37,-0.12 8.69,0.98 12.7,2.64c5.25,2.42 8.78,7.54 10.49,12.93c0.86,5.3 0.33,10.72 0.49,16.07c0.78,13.3 0.74,26.66 0.7,39.99c-0.1,57 -0.01,114.01 -0.21,171.01c-0.95,10.33 -0.1,20.73 -0.83,31.07c-0.56,6.93 -5.38,12.9 -11.61,15.7c-6,2.62 -12.53,3.55 -18.87,4.98c-18.52,4.09 -37.63,5.51 -56.52,3.86c-22.79,-1.33 -45.41,-6.87 -65.91,-17.01c-24.46,-12.46 -46.39,-30.53 -61.5,-53.61c-7.65,-11.59 -15.37,-24.59 -14.41,-39c0.26,-25.33 -0.8,-50.65 -0.13,-75.97c0.48,-28.35 -0.41,-56.69 -0.13,-85.04c0.13,-4.55 0.43,-9.12 1.42,-13.58c1.95,-6.7 7.89,-12.16 14.85,-13.2l0,0z" opacity = "1.00" data-index = "2" vector-effect="non-scaling-stroke" pen = "1,1" />
<path style="fill:#388046;stroke:#388046; stroke-width:1" d="m90.01,115.06c7.22,-9.38 15.12,-18.38 24.09,-26.11c-1.76,6.15 -4.73,11.86 -7.76,17.47c-0.86,1.9 -2.96,2.52 -4.66,3.42c-3.83,1.85 -7.6,3.91 -11.67,5.22z" opacity = "1.00" data-index = "3" vector-effect="non-scaling-stroke" pen = "1,1" />
<path style="fill:#388046;stroke:#388046; stroke-width:0.25" d="m173.38,96.59c2.85,-0.42 5.73,-0.66 8.62,-0.79c51.35,-0.21 102.71,-0.02 154.06,-0.05c5.84,-0.03 12.21,2.99 14.08,8.87c1.9,8.66 1.16,17.58 1.26,26.38c-0.12,4.03 0.33,8.65 -2.39,11.98c-3.19,2.98 -7.79,3.76 -12.01,3.72c-53,-0.02 -105.99,-0.07 -158.99,0.04c-3.43,-0.21 -7.26,0.52 -10.29,-1.5c-3.1,-1.87 -4.3,-5.75 -4.24,-9.19c-0.08,-9.37 0.02,-18.75 0.09,-28.12c-0.15,-5.6 4.53,-10.28 9.81,-11.34z" opacity = "1.00" data-index = "4" transform = "matrix(1,0,0,1,0,0)" vector-effect="non-scaling-stroke" pen = "1,1" />
<path style="fill:#388046;stroke:#388046; stroke-width:1" d="m86.18,124.08c5.11,-2.62 10.36,-5.03 15.77,-6.98c-0.59,4.26 -2.04,8.34 -3.05,12.52c-2.73,9.94 -4.95,20.01 -7.62,29.98c-3.15,1.31 -6.35,2.52 -9.64,3.45c-2.42,-9.64 -3.71,-19.53 -5.34,-29.33c3.13,-3.36 5.58,-7.61 9.88,-9.64z" opacity = "1.00" data-index = "5" vector-effect="non-scaling-stroke" pen = "1,1" />
<path style="fill:#388046;stroke:#388046; stroke-width:1" d="m57.75,170.81c4.16,-9.17 7.56,-18.88 13.39,-27.16c1.65,7.09 2.36,14.37 3.54,21.56c-5.72,1.62 -11.46,3.24 -16.93,5.6z" opacity = "1.00" data-index = "6" vector-effect="non-scaling-stroke" pen = "1,1" />
<path style="fill:#388046;stroke:#388046; stroke-width:1" d="m83.54,170.36c2.47,-1.32 4.8,-2.87 7.21,-4.29c-1.19,7.89 -2.51,15.76 -2.85,23.76c-2.52,-3.13 -3.2,-7.3 -5.83,-10.35c-2.05,-0.2 -3.96,0.68 -5.86,1.31c2.03,4.63 3.85,9.41 4.15,14.51c-10.36,0.37 -20.75,0.21 -31.11,0.1c1.14,-4.99 2.59,-9.91 4.33,-14.72c0.5,-1.93 2.73,-2.25 4.29,-2.95c6.4,-2.15 12.9,-4.06 19.47,-5.61c1.23,1.52 2.49,3.02 3.8,4.47c1.05,-1.97 1.77,-4.09 2.4,-6.23z" opacity = "1.00" data-index = "7" vector-effect="non-scaling-stroke" pen = "1,1" />
<path style="fill:#388046;stroke:#388046; stroke-width:0.25" d="m181.48,167.08c3.81,-0.65 7.68,-0.32 11.52,-0.39c44.02,-0.12 88.03,0.01 132.05,-0.1c7.95,-0.13 16.43,2.46 21.63,8.77c3.72,3.88 4.92,9.41 4.71,14.64c0.14,48.02 0.12,96.03 0.22,144.04c0.46,9.85 -9.17,17.6 -18.56,17.38c-18.36,-0.16 -36.72,0.17 -55.08,-0.07c-17.11,-0.73 -34.79,-2.88 -49.99,-11.34c-3.2,-1.91 -6.94,-4.76 -6.61,-8.93c0.03,-11.67 0.11,-23.34 0.03,-35.01c0.24,-1.91 -1.51,-3.8 -3.45,-3.51c-13.64,-0.28 -27.29,0.14 -40.91,-0.21c-5.85,-2.04 -10.25,-7.12 -12.31,-12.86c-2.23,-5.58 -1.02,-11.69 -1.92,-17.49c-0.06,-13 -0.46,-26.02 0.46,-38.99c0.02,-12.61 -0.05,-25.22 0.08,-37.82c-0.1,-9.65 9.1,-17.09 18.13,-18.11z" opacity = "1.00" data-index = "8" transform = "matrix(1,0,0,1,0,0)" vector-effect="non-scaling-stroke" pen = "1,1" />
<path style="fill:#FEFEFE;stroke:#FEFEFE; stroke-width:0.25" d="m180.37,185.42c13.36,-0.02 26.73,-0.03 40.1,0.12c0.19,6.16 1.16,12.28 0.86,18.46c-0.24,6.15 0.67,12.41 -0.62,18.47c-13.34,0.07 -26.68,0.2 -40.02,-0.11c-0.72,-12.3 -0.2,-24.62 -0.32,-36.94z" opacity = "1.00" data-index = "9" vector-effect="non-scaling-stroke" pen = "1,1" />
<path style="fill:#FEFEFE;stroke:#FEFEFE; stroke-width:0.25" d="m239.44,185.44c13.31,0.04 26.63,-0.05 39.95,0.16c0,12.24 0.15,24.48 -0.11,36.72c-13.25,0.35 -26.52,0.2 -39.78,0.15c-0.51,-12.33 -0.17,-24.69 -0.06,-37.03z" opacity = "1.00" data-index = "10" vector-effect="non-scaling-stroke" pen = "1,1" />
<path style="fill:#FEFEFE;stroke:#FEFEFE; stroke-width:0.25" d="m296.5,185.51c12.33,-0.08 24.66,-0.14 36.99,0.08c0.47,7.13 -0.12,14.29 0.67,21.4c0.06,5.16 0.6,10.41 -0.6,15.48c-12.36,0.03 -24.73,0.09 -37.09,-0.05c-0.14,-12.3 -0.12,-24.61 0.03,-36.91z" opacity = "1.00" data-index = "11" vector-effect="non-scaling-stroke" pen = "1,1" />
<path style="fill:#388046;stroke:#388046; stroke-width:1" d="m49.32,201.5c9.22,-0.12 18.43,-0.02 27.65,-0.15c-1.08,6.74 -2.68,13.39 -4.71,19.9c-4.73,-2.59 -8.46,-6.54 -12.66,-9.85c-3.61,-3.1 -7.5,-5.97 -10.28,-9.9z" opacity = "1.00" data-index = "12" vector-effect="non-scaling-stroke" pen = "1,1" />
<path style="fill:#388046;stroke:#388046; stroke-width:1" d="m85.27,202.45c0.59,-0.06 1.78,-0.17 2.38,-0.23c1.33,12.21 1.87,24.49 3.79,36.64c-3.57,-3.59 -7.23,-7.1 -11.41,-9.98c-2.65,-1.24 -1.1,-4.27 -0.68,-6.36c1.94,-6.7 3.77,-13.44 5.92,-20.07z" opacity = "1.00" data-index = "13" vector-effect="non-scaling-stroke" pen = "1,1" />
<path style="fill:#388046;stroke:#388046; stroke-width:1" d="m44.66,216.94c-0.66,-3.21 -0.02,-6.55 0.84,-9.65c8.26,6.88 15.95,14.42 24.29,21.2c-1.1,4.66 -2.33,9.35 -4.37,13.7c-4.94,0.05 -9.9,0 -14.83,0.49c2.05,2.19 4.24,4.24 6.62,6.07c4.5,3.47 8.26,7.76 12.44,11.58c-3.31,3.73 -6.85,7.27 -10.63,10.54c-5.83,-6.53 -12.16,-12.58 -18.34,-18.78c1.17,-4.34 -2.03,-8.32 -1.06,-12.51c3.75,-4.48 8.88,-7.87 11.93,-12.93c0.64,-2.11 -1.38,-3.31 -2.59,-4.64c-1.56,-1.58 -3.08,-3.22 -4.3,-5.07z" opacity = "1.00" data-index = "14" vector-effect="non-scaling-stroke" pen = "1,1" />
<path style="fill:#388046;stroke:#388046; stroke-width:1" d="m41.65,226.74c0.54,-0.1 1.64,-0.3 2.18,-0.4c-0.11,1.04 -0.23,2.07 -0.35,3.11c-0.62,0.11 -1.85,0.32 -2.47,0.43c0.21,-1.05 0.42,-2.1 0.64,-3.14z" opacity = "1.00" data-index = "15" vector-effect="non-scaling-stroke" pen = "1,1" />
<path style="fill:#388046;stroke:#388046; stroke-width:1" d="m75.74,233.83c3.36,1.99 6.05,4.85 8.75,7.64c-3.41,0.18 -6.83,0.11 -10.25,0.02c0.33,-2.58 0.86,-5.13 1.5,-7.66z" opacity = "1.00" data-index = "16" vector-effect="non-scaling-stroke" pen = "1,1" />
<path style="fill:#FEFEFE;stroke:#FEFEFE; stroke-width:0.25" d="m180.63,239.68c8.77,-0.59 17.58,0.03 26.37,-0.09c4.8,0.14 9.71,-0.47 14.43,0.73c-0.05,11.65 -0.21,23.3 -0.19,34.95c-13.21,0.28 -26.42,0.18 -39.63,0.13c-0.88,-11.87 -1.75,-23.81 -0.98,-35.72z" opacity = "1.00" data-index = "17" vector-effect="non-scaling-stroke" pen = "1,1" />
<path style="fill:#FEFEFE;stroke:#FEFEFE; stroke-width:0.25" d="m239.59,239.6c13.27,-0.23 26.56,-0.24 39.83,0.03c0.24,11.91 0.26,23.82 0.12,35.73c-13.31,0.07 -26.63,0.05 -39.95,-0.05c-0.59,-11.88 -0.42,-23.82 0,-35.71z" opacity = "1.00" data-index = "18" vector-effect="non-scaling-stroke" pen = "1,1" />
<path style="fill:#FEFEFE;stroke:#FEFEFE; stroke-width:0.25" d="m296.6,240.47c4.69,-1.33 9.6,-0.69 14.4,-0.85c7.85,0.26 15.81,-0.63 23.57,0.85c-0.25,11.61 0.03,23.26 -1.09,34.83c-12.29,0.01 -24.59,0.14 -36.88,-0.09c-0.35,-11.57 -0.16,-23.17 0,-34.74z" opacity = "1.00" data-index = "19" vector-effect="non-scaling-stroke" pen = "1,1" />
<path style="fill:#388046;stroke:#388046; stroke-width:1" d="m68.82,247.84c4.4,-0.15 8.81,-0.08 13.17,0.52c-2.22,2.31 -4.39,4.75 -7.08,6.55c-2.82,-1.51 -4.51,-4.41 -6.09,-7.07z" opacity = "1.00" data-index = "20" vector-effect="non-scaling-stroke" pen = "1,1" />
<path style="fill:#388046;stroke:#388046; stroke-width:1" d="m82.31,257.33c3.87,-3.23 6.88,-7.72 11.73,-9.6c2.88,11.96 6.46,23.89 12.31,34.76c2.08,4.01 3.77,8.2 5.47,12.38c-5.85,4.4 -11.08,9.53 -16.73,14.19c-5.95,5.39 -11.26,11.43 -17.11,16.93c-3.98,-4.04 -8.02,-8.02 -11.95,-12.1c-1.77,-1.45 -0.11,-3.56 1.03,-4.78c3.84,-4.26 7.01,-9.05 10.57,-13.53c4.89,-1.81 10.35,-0.41 15.47,-0.85c4.48,0.58 7.43,-3.36 10.8,-5.57c-2.03,-4.15 -3.65,-8.72 -7.22,-11.86c-5.22,-5.45 -10.41,-10.94 -15.87,-16.16c-1.53,-1.43 0.47,-2.87 1.5,-3.81z" opacity = "1.00" data-index = "21" vector-effect="non-scaling-stroke" pen = "1,1" />
<path style="fill:#388046;stroke:#388046; stroke-width:1" d="m39.9,260.04c5.22,5.05 10.12,10.43 15.1,15.71c-4.17,4.21 -7.71,8.99 -12.03,13.05c-2.32,-9.4 -3.21,-19.1 -3.07,-28.76z" opacity = "1.00" data-index = "22" vector-effect="non-scaling-stroke" pen = "1,1" />
<path style="fill:#388046;stroke:#388046; stroke-width:1" d="m63.96,275.36c3.16,-3.61 6.62,-7 10.32,-10.06c2.74,-0.38 4.3,2.71 6.29,4.13c5.8,6.12 12.64,11.56 16.77,19.04c-5.71,0.3 -11.44,0.2 -17.15,0.07c-1.79,0.02 -3.15,-1.29 -4.54,-2.22c-4.19,-3.33 -7.83,-7.27 -11.69,-10.96z" opacity = "1.00" data-index = "23" vector-effect="non-scaling-stroke" pen = "1,1" />
<path style="fill:#388046;stroke:#388046; stroke-width:1" d="m46.48,294.43c4.46,-4.84 8.77,-9.82 13.5,-14.39c3.34,3.4 7.19,6.34 10.09,10.15c0.62,1.97 0.56,4.38 -0.83,6.04c-2.85,3.85 -5.45,7.92 -8.81,11.36c-4.73,-4.3 -9.63,-8.43 -13.95,-13.16z" opacity = "1.00" data-index = "24" vector-effect="non-scaling-stroke" pen = "1,1" />
<path style="fill:#FEFEFE;stroke:#FEFEFE; stroke-width:0.25" d="m297.44,292.62c6.39,-1.67 13.04,-0.7 19.56,-0.93c5.58,0.02 11.19,-0.23 16.7,0.88c1.12,5.07 0.43,10.29 0.6,15.43c-0.25,8.16 0.65,16.43 -0.9,24.51c-12.33,0.1 -24.67,0.11 -37,-0.15c-0.38,-12.06 0.13,-24.12 0.14,-36.18c0.18,-1.17 -0.35,-2.84 0.9,-3.56z" opacity = "1.00" data-index = "25" vector-effect="non-scaling-stroke" pen = "1,1" />
<path style="fill:#FEFEFE;stroke:#FEFEFE; stroke-width:0.25" d="m239.35,292.3c13.06,-0.08 26.13,-0.15 39.19,0.03c1.28,6.48 0.52,13.11 0.72,19.67c-0.2,7.1 0.64,14.28 -0.74,21.29c-12.49,-0.01 -24.99,0.44 -37.47,0c-2.01,-0.94 -1.4,-3.44 -1.65,-5.22c0.02,-11.92 -0.5,-23.85 -0.05,-35.77z" opacity = "1.00" data-index = "26" vector-effect="non-scaling-stroke" pen = "1,1" />
<path style="fill:#388046;stroke:#388046; stroke-width:1" d="m93.75,318.72c6.8,-6.24 13.18,-12.94 20.39,-18.72c1.94,3.04 3.72,6.19 5.64,9.25c-5.46,5.03 -12.07,9.17 -15.81,15.75c5.12,4.49 10.13,9.12 14.93,13.95c2.08,-1.29 4.2,-2.53 6.45,-3.49c0.95,5.97 2.65,12.11 2.21,18.15c-4.98,3.75 -10.53,6.72 -15.55,10.45c-1.66,1.48 -3.87,0.36 -5.44,-0.65c-6.21,-3.93 -12.88,-7.09 -18.97,-11.21c1.46,-1.59 2.89,-3.2 4.32,-4.82c3.25,3.03 7.31,7.83 12.18,4.92c-4.5,-4.97 -8.89,-10.03 -13.62,-14.78c-2.28,-2.65 -5.19,-4.8 -7.11,-7.73c0.01,-0.32 0.04,-0.97 0.05,-1.29c3.22,-3.48 6.99,-6.41 10.33,-9.78z" opacity = "1.00" data-index = "27" vector-effect="non-scaling-stroke" pen = "1,1" />
<path style="fill:#388046;stroke:#388046; stroke-width:1" d="m45.5,303.01c3.6,2.88 6.9,6.13 10.06,9.48c-0.32,3.34 -3.89,5.37 -5.97,7.76c-1.83,-5.62 -3.15,-11.41 -4.09,-17.24z" opacity = "1.00" data-index = "28" vector-effect="non-scaling-stroke" pen = "1,1" />
<path style="fill:#388046;stroke:#388046; stroke-width:1" d="m111.3,323.67c3.55,-3.91 7.81,-7.06 11.78,-10.51c2.27,3.3 4.46,6.65 6.73,9.96c-2.8,3.65 -5.8,7.19 -9.39,10.08c-3.04,-3.17 -6.19,-6.25 -9.12,-9.53z" opacity = "1.00" data-index = "29" vector-effect="non-scaling-stroke" pen = "1,1" />
<path style="fill:#388046;stroke:#388046; stroke-width:1" d="m52.38,326.97c2.78,-3.19 5.69,-6.27 8.51,-9.43c4.23,3.92 8.43,7.87 12.79,11.65c-4.2,4.37 -8.16,9.56 -13.88,11.97c-2.95,-4.47 -5.22,-9.32 -7.42,-14.19z" opacity = "1.00" data-index = "30" vector-effect="non-scaling-stroke" pen = "1,1" />
<path style="fill:#388046;stroke:#388046; stroke-width:0.25" d="m440.72,344.76c7.23,-8.37 13.56,-17.49 20.94,-25.74c-1.76,7.74 -5.07,14.96 -8.29,22.17c-1.08,2.08 -2.18,4.58 -4.61,5.36c-5.3,1.94 -10.41,4.65 -16.06,5.44c2.5,-2.61 5.52,-4.63 8.02,-7.23z" opacity = "1.00" data-index = "31" transform = "matrix(1,0,0,1,0,0)" vector-effect="non-scaling-stroke" pen = "1,1" />
<path style="fill:#388046;stroke:#388046; stroke-width:0.25" d="m130.67,324.27c2.92,1.77 4.53,4.83 6.55,7.46c2.98,3.93 6.06,7.79 9.38,11.44c-4.48,1.79 -8.27,4.91 -12.72,6.76c-0.47,-8.64 -3.84,-16.98 -3.21,-25.66z" opacity = "1.00" data-index = "32" vector-effect="non-scaling-stroke" pen = "1,1" />
<path style="fill:#388046;stroke:#388046; stroke-width:1" d="m72.21,341.67c0.95,-3.14 4.2,-4.88 6.33,-7.22c2.89,2.98 5.84,5.91 8.86,8.76c-1.41,1.88 -2.83,3.76 -4.29,5.61c-3.87,-1.98 -7.58,-4.33 -10.9,-7.15z" opacity = "1.00" data-index = "33" vector-effect="non-scaling-stroke" pen = "1,1" />
<path style="fill:#388046;stroke:#388046; stroke-width:1" d="m63.43,349.86c0.06,-1.92 2.33,-2.54 3.48,-3.75c8.53,6.29 17.32,12.25 26.67,17.27c3.3,1.94 6.82,3.67 9.44,6.54c-5.31,3.73 -10.97,7 -15.78,11.39c-0.88,0.64 -2.42,2.29 -3.41,1.03c-4.37,-5.11 -7.94,-10.87 -11.76,-16.38c1.05,-1.28 2.3,-2.36 3.5,-3.5c-0.05,-0.94 -0.1,-1.88 -0.15,-2.82c-2.22,-0.4 -4.45,-0.78 -6.69,-1.03c-1.53,-3.06 -3.57,-5.81 -5.3,-8.75z" opacity = "1.00" data-index = "34" vector-effect="non-scaling-stroke" pen = "1,1" />
<path style="fill:#388046;stroke:#388046; stroke-width:0.25" d="m135.93,356.98c5.5,-3.12 10.77,-6.67 16.48,-9.4c1.61,8.35 0.93,16.96 0.99,25.42c-4.69,-3 -9.13,-6.41 -13.32,-10.08c-1.89,-1.58 -3.1,-3.76 -4.15,-5.94z" opacity = "1.00" data-index = "35" vector-effect="non-scaling-stroke" pen = "1,1" />
<path style="fill:#388046;stroke:#388046; stroke-width:0.25" d="m420.68,362.97c8.9,-2.61 17.63,-5.73 26.43,-8.64c-2.48,6.65 -6.82,12.34 -10.35,18.43c-1.98,3.44 -4.55,6.47 -6.79,9.73c-6.17,-4 -12.34,-8 -18.61,-11.83c2.41,-3.24 5.81,-5.76 9.32,-7.69z" opacity = "1.00" data-index = "36" transform = "matrix(1,0,0,1,0,0)" vector-effect="non-scaling-stroke" pen = "1,1" />
<path style="fill:#388046;stroke:#388046; stroke-width:0.25" d="m160.73,354.39c3.24,2.71 6.13,5.82 9.45,8.45c2.16,1.76 4.49,3.39 6.23,5.6c1.35,10.87 2.88,21.75 3.16,32.71c-2.39,0.17 -4.77,0.38 -7.16,0.57c-0.26,-4.56 0.3,-9.05 1.18,-13.48c-3.34,-4.68 -8.82,-7.67 -13.1,-11.55c0.09,-7.44 -0.12,-14.88 0.24,-22.3z" opacity = "1.00" data-index = "37" vector-effect="non-scaling-stroke" pen = "1,1" />
<path style="fill:#388046;stroke:#388046; stroke-width:1" d="m116.26,368.13c4.39,-2.45 8.68,-5.1 12.9,-7.83c1.96,2.82 3.8,5.84 6.65,7.87c6.03,4.45 12.49,8.29 18.74,12.44c-0.01,2.83 -0.1,5.66 -0.22,8.49c-5.86,-1.75 -10.84,-5.47 -16.31,-8.11c-7.25,-4.27 -14.87,-8 -21.76,-12.86z" opacity = "1.00" data-index = "38" vector-effect="non-scaling-stroke" pen = "1,1" />
<path style="fill:#388046;stroke:#388046; stroke-width:1" d="m108.64,373.92c2.94,-1.79 5.99,0.49 8.52,1.9c4.79,2.92 10.04,5.13 14.55,8.47c1.56,5.51 1.96,11.36 2.14,17.09c-5.81,0.07 -11.65,-0.2 -17.45,0.21c-1.7,1.41 -1.96,3.69 -2.28,5.72c7.69,0.47 15.4,0.2 23.11,0.23c0.6,3.56 0.79,7.68 4.31,9.69c-1,1.11 -2.07,2.17 -3.01,3.34c-0.46,2.86 -0.09,5.78 0.14,8.66c2.77,-1.84 4.78,-4.51 6.3,-7.42c2.95,5.62 6.24,11.28 6.54,17.8c-5.61,-3 -10.92,-6.49 -16.43,-9.65c-6.35,-4.24 -12.32,-9.02 -18.35,-13.71c-3.68,-2.76 -6.62,-6.37 -10.34,-9.08c1.44,-6.33 3.16,-12.6 4.11,-19.03c0.48,-3.66 1.91,-7.07 3.21,-10.49c-3.37,0.84 -6.23,2.86 -9.08,4.74c0.88,6.83 -1.5,13.36 -3.54,19.74c-4.8,-4.32 -8.84,-9.38 -13.01,-14.28c6.74,-4.79 13.51,-9.6 20.56,-13.93z" opacity = "1.00" data-index = "39" vector-effect="non-scaling-stroke" pen = "1,1" />
<path style="fill:#388046;stroke:#388046; stroke-width:0.25" d="m183.07,372.62c3.89,1.13 7.09,3.65 10.53,5.68c7.09,4.22 14.69,7.47 22.17,10.92c7.49,3.49 15.51,5.5 23.35,8.03c-15.66,1.05 -31.41,-0.16 -47.09,0.39c-1.88,0.24 -3.71,0.76 -5.57,1.14c0.13,-8.86 -2.53,-17.41 -3.39,-26.16z" opacity = "1.00" data-index = "40" vector-effect="non-scaling-stroke" pen = "1,1" />
<path style="fill:#388046;stroke:#388046; stroke-width:0.25" d="m383.68,384.53c7.6,-3.17 14.62,-7.47 21.76,-11.51c0.78,3.47 -0.63,6.42 -3.02,8.84c4.63,7.69 3.18,16.99 5.45,25.38c-3.87,2.21 -6.78,5.65 -10.24,8.39c-6.27,5.54 -13.38,9.98 -19.97,15.09c-4.69,2.9 -9.61,5.42 -14.48,7.99c0.34,-6.73 4.73,-12.27 5.82,-18.8c2.46,2.37 2.51,6.88 6.15,7.91c0.76,-3.48 1.04,-7.34 -1.86,-9.93c2.49,-2.96 3.21,-6.79 4.39,-10.36c6.98,-0.35 13.96,-0.3 20.92,-1c-0.02,-1.34 -0.04,-2.68 -0.05,-4.02c-6.08,-1.52 -12.37,-0.44 -18.55,-0.83c0.66,-5.83 2.81,-11.36 3.68,-17.15z" opacity = "1.00" data-index = "41" vector-effect="non-scaling-stroke" pen = "1,1" />
<path style="fill:#388046;stroke:#388046; stroke-width:0.25" d="m411.08,386.66c-1.2,-2.92 0.52,-5.86 1.37,-8.62c4.23,3.23 8.98,5.7 13.2,8.94c-3.25,5.07 -7.01,9.98 -11.87,13.62c-0.9,-4.65 -1.15,-9.44 -2.7,-13.94z" opacity = "1.00" data-index = "42" transform = "matrix(1,0,0,1,0,0)" vector-effect="non-scaling-stroke" pen = "1,1" />
<path style="fill:#388046;stroke:#388046; stroke-width:0.25" d="m161.4,386.53c1.38,1.31 3.31,2.34 3.67,4.4c0.64,4.23 0.48,8.54 0.76,12.8c-1.07,0.03 -3.22,0.1 -4.29,0.13c-0.18,-5.78 -0.53,-11.56 -0.14,-17.33z" opacity = "1.00" data-index = "43" vector-effect="non-scaling-stroke" pen = "1,1" />
<path style="fill:#388046;stroke:#388046; stroke-width:0.25" d="m361,393.97c5.29,-1.95 10.16,-4.96 15.65,-6.36c-2.02,8.21 -5.49,16.08 -6.47,24.53c-4.83,-2.76 -7.81,-9.38 -14.11,-8.8c-2.89,-0.33 -4.68,3.05 -7.72,2.33c0.55,-2.41 1.12,-4.83 2.03,-7.13c3.24,-2.11 7.09,-3.03 10.62,-4.57z" opacity = "1.00" data-index = "44" vector-effect="non-scaling-stroke" pen = "1,1" />
<path style="fill:#388046;stroke:#388046; stroke-width:0.25" d="m140.37,389.65c4.84,1.97 9.76,4.11 13.95,7.26c0.22,2.35 0.18,4.71 0.2,7.08c-3.37,1.89 -5.98,4.78 -8.98,7.15c-2.6,-6.92 -4.2,-14.19 -5.17,-21.49z" opacity = "1.00" data-index = "45" vector-effect="non-scaling-stroke" pen = "1,1" />
<path style="fill:#388046;stroke:#388046; stroke-width:0.25" d="m333.86,402.62c2.57,-1.32 5.32,-2.2 8.12,-2.85c-0.37,2.1 -0.94,4.16 -1.57,6.21c-2.75,0.13 -5.14,-0.97 -6.55,-3.36z" opacity = "1.00" data-index = "46" vector-effect="non-scaling-stroke" pen = "1,1" />
<path style="fill:#388046;stroke:#388046; stroke-width:0.25" d="m243.98,401.65c6.23,-2.48 12.71,-0.07 18.93,1.13c-2.39,4.05 -5.65,7.48 -8.69,11.05c-4.01,-3.53 -6.88,-8.08 -10.24,-12.18z" opacity = "1.00" data-index = "47" vector-effect="non-scaling-stroke" pen = "1,1" />
<path style="fill:#388046;stroke:#388046; stroke-width:0.25" d="m272.99,403.56c18.1,1.19 36.32,1.34 54.4,-0.21c3.42,3.73 8.22,6 13.24,6.54c-0.97,6.98 -1.47,14.01 -2.38,21c-4.02,1.99 -8.34,3.58 -11.74,6.64c-1.96,1.51 -4.08,4.4 -6.87,2.93c-5.22,-3 -9.99,-6.73 -14.78,-10.37c2.87,-2.88 5.77,-5.71 8.6,-8.63c3.09,-3.22 6.74,-6.02 8.84,-10.05c-2.23,-0.07 -4.55,-0.51 -6.73,0.13c-4.5,4.21 -9.35,8.03 -13.59,12.52c-1.57,1.71 -3.81,0.4 -5.23,-0.75c-4.85,-3.83 -9.74,-7.63 -14.35,-11.73c-1.94,-1.74 -4.75,-0.82 -7.08,-0.99c4.55,8.02 13.13,12.49 20.12,18.11c0.81,0.94 0.38,2.39 -0.53,3.12c-4.54,4.82 -9.46,9.28 -13.93,14.17c-3.46,-2.41 -6.74,-5.08 -9.97,-7.77c-1.27,1.63 -2.55,3.25 -3.81,4.89c2.84,2.08 5.94,3.87 8.51,6.3c0.61,2.04 -1.62,3.17 -2.76,4.46c-1.75,1.37 -3.86,4.03 -6.31,2.63c-1.93,-2.17 -3.13,-4.88 -5.06,-7.03c-3.62,-1.08 -7.45,-0.79 -11.17,-1.09c-2.84,3.1 -5.88,6.02 -8.67,9.17c-2.8,-2.23 -5.54,-4.52 -8.21,-6.89c2.89,-2.75 6.1,-5.14 9.3,-7.51c-1.12,-1.44 -2.23,-2.88 -3.35,-4.31c-3.56,2.17 -6.7,4.93 -10.22,7.15c-5.36,-5.39 -10.97,-10.52 -16.17,-16.07c6.48,-4.76 13.02,-9.48 18.95,-14.94c1.42,-1.31 2.46,-2.95 3.45,-4.59c-1.69,-0.04 -3.4,-0.24 -5.08,0.05c-6.98,4.53 -13.2,10.16 -20.3,14.48c-5.4,-4.33 -10.49,-9.07 -15.14,-14.2c-2.45,-0.05 -4.9,-0.06 -7.35,0.04c5.26,7.18 12.48,12.59 18.33,19.25c-4.57,3.39 -8.88,7.14 -13.55,10.37c-2.49,1.48 -4.41,-1.29 -6.03,-2.77c-2.86,-3.1 -6.68,-5.09 -10.69,-6.29c-0.83,-7.93 -2.4,-15.78 -2.41,-23.79c7.98,-1.02 15.92,-2.43 23.95,-3.09c7.93,-0.25 15.86,-0.03 23.79,-0.25c4.33,-0.41 8.69,-0.67 13.06,-0.54c3.86,2.64 7.45,5.78 10.68,9.18c-3.2,4.73 -7.52,8.48 -12.64,11.01c3.56,4.12 5.93,9.33 10.69,12.31c3.78,2.41 6.1,7.82 11.21,7.48c3.67,0.4 6.11,-2.87 8.59,-5.02c4.75,-4.94 10,-9.41 14.34,-14.74c-4.88,-2.93 -8.76,-7.09 -12.54,-11.27c2.8,-3.08 5.91,-5.86 8.59,-9.04z" opacity = "1.00" data-index = "48" vector-effect="non-scaling-stroke" pen = "1,1" />
<path style="fill:#388046;stroke:#388046; stroke-width:0.25" d="m153.06,411.69c4.73,-0.68 9.5,-1.1 14.25,-1.62c0.52,7.39 1.89,14.71 2.11,22.13c-3.05,0 -6.09,0.05 -9.13,0.29c-0.78,1.53 -1.44,3.15 -1.6,4.88c4.78,0.33 9.58,0.16 14.37,0.22c5.51,-0.75 9.4,4.29 11.91,8.48c-0.86,3.21 -4.49,4.54 -6.88,6.51c-6.89,-3.12 -14.38,-5.45 -20.23,-10.41c-1.98,-1.4 -1.25,-4.13 -1.72,-6.17c-0.55,-7.44 -5.08,-13.73 -6.83,-20.84c-0.16,-2.05 2.38,-2.59 3.75,-3.47z" opacity = "1.00" data-index = "49" vector-effect="non-scaling-stroke" pen = "1,1" />
<path style="fill:#388046;stroke:#388046; stroke-width:0.25" d="m346.8,410.6c6.55,0.19 13.86,-0.69 19.27,3.82c-1.58,6.9 -5.07,13.08 -8.33,19.29c-4.31,-1.88 -9.07,-1.06 -13.62,-1.17c-0.29,-7.44 1.23,-14.7 2.68,-21.94z" opacity = "1.00" data-index = "50" vector-effect="non-scaling-stroke" pen = "1,1" />
<path style="fill:#388046;stroke:#388046; stroke-width:0.25" d="m253.7,422.08c3.17,-1.1 5.19,-3.9 7.56,-6.1c1.84,3.59 4.35,7 5.27,10.98c-2.17,2.98 -4.91,5.49 -7.54,8.07c-1.5,1.21 -3.16,3.31 -5.33,2.36c-4.47,-2.46 -7.41,-6.76 -10.65,-10.55c1.96,-3.59 4.17,-7.04 6.3,-10.53c1.57,1.84 2.95,3.83 4.39,5.77z" opacity = "1.00" data-index = "51" vector-effect="non-scaling-stroke" pen = "1,1" />
<path style="fill:#388046;stroke:#388046; stroke-width:0.25" d="m194.99,446.58c4.48,-4.48 9.64,-8.21 14.85,-11.79c4.75,4.98 9.82,9.66 14.74,14.47c0.57,1.81 -1.72,2.08 -2.85,2.8c-2.47,1.14 -5.01,-0.76 -7.55,-0.65c-3.18,1.22 -6.01,3.21 -9.21,4.4c-3.34,-3.06 -6.54,-6.29 -9.98,-9.23z" opacity = "1.00" data-index = "52" vector-effect="non-scaling-stroke" pen = "1,1" />
<path style="fill:#388046;stroke:#388046; stroke-width:0.25" d="m299.7,435.72c1.22,-0.95 2.82,-0.08 3.92,0.63c4.44,2.85 8.59,6.12 12.85,9.23c0.03,0.28 0.09,0.84 0.12,1.12c-3.2,3.13 -6.2,6.56 -9.86,9.15c-4.04,0.04 -6.89,-3.69 -10.71,-4.4c-3.4,0.06 -6.97,0.88 -10.11,-0.88c0.6,-2.89 3.18,-4.57 5.09,-6.57c2.93,-2.73 5.53,-5.82 8.7,-8.28z" opacity = "1.00" data-index = "53" vector-effect="non-scaling-stroke" pen = "1,1" />
<path style="fill:#388046;stroke:#388046; stroke-width:0.25" d="m351.07,437.7c2.86,0.32 4.35,-2.65 6.46,-4.01c-0.39,2.93 -1,5.83 -1.28,8.78c-6.98,3.55 -13.83,7.43 -21.25,10c-3.12,-1.61 -5.2,-4.8 -7.95,-7c2.88,-2.61 5.92,-5.14 9.46,-6.8c4.77,-1.17 9.7,-0.81 14.56,-0.97z" opacity = "1.00" data-index = "54" vector-effect="non-scaling-stroke" pen = "1,1" />
<path style="fill:#388046;stroke:#388046; stroke-width:0.25" d="m312.89,458.89c3.29,-2.29 6.18,-5.07 9.27,-7.6c2.47,0.3 3.67,2.95 5.37,4.49c-4.86,1.1 -9.65,2.66 -14.64,3.11z" opacity = "1.00" data-index = "55" vector-effect="non-scaling-stroke" pen = "1,1" />
<path style="fill:#388046;stroke:#388046; stroke-width:0.25" d="m185.84,455.09c1.58,-1.43 3.33,-3.35 5.72,-2.8c2.7,1.94 5.24,4.14 7.52,6.56c-4.39,-1.34 -8.71,-2.93 -13.24,-3.76z" opacity = "1.00" data-index = "56" vector-effect="non-scaling-stroke" pen = "1,1" />
<path style="fill:#388046;stroke:#388046; stroke-width:0.25" d="m245.33,465.03c2.63,-4.78 6.11,-9.02 9.65,-13.14c3.23,4.1 6.55,8.14 9.8,12.22c-0.2,0.54 -0.59,1.61 -0.79,2.15c-6.22,0.2 -12.64,0.7 -18.66,-1.23z" opacity = "1.00" data-index = "57" vector-effect="non-scaling-stroke" pen = "1,1" />
<path style="fill:#388046;stroke:#388046; stroke-width:0.25" d="m212.81,461.03c5.48,-1.76 11.06,-3.43 15.73,-6.96c3.29,3.67 6.56,7.35 9.51,11.31c-4.04,0 -8.01,-0.79 -12.02,-1.09c-4.48,-0.7 -9.22,-0.9 -13.22,-3.26z" opacity = "1.00" data-index = "58" vector-effect="non-scaling-stroke" pen = "1,1" />
<path style="fill:#388046;stroke:#388046; stroke-width:0.25" d="m280.5,454.28c5.74,3.67 12.54,4.53 18.84,6.76c-3.32,2.01 -7.31,2.16 -11.04,2.76c-5,0.83 -10.09,0.97 -15.15,0.95c2.45,-3.49 4.76,-7.08 7.35,-10.47z" opacity = "1.00" data-index = "59" vector-effect="non-scaling-stroke" pen = "1,1" />
</g>
</svg>
