<?xml version="1.0" ?><svg style="enable-background:new 0 0 64 64;" version="1.1" viewBox="0 0 64 64" xml:space="preserve" xmlns="http://www.w3.org/2000/svg" xmlns:xlink="http://www.w3.org/1999/xlink"><g id="Layer_1"/><g id="Light"/><g id="Window"/><g id="Rub_el_hizb"/><g id="Muslimah"/><g id="Muslim"/><g id="Wudhu"/><g id="Praying_00000094592418709929368740000016989174723214131090_"/><g id="Praying"/><g id="Pray"/><g id="Ketupat"/><g id="Gift"/><g id="Oil_Lamp"/><g id="Tauhid"/><g id="Zakat"/><g id="Eat"/><g id="Oud"/><g id="Teapot"/><g id="Iftar"/><g id="Dawn"/><g id="Infaq"/><g id="Sajadah"/><g id="Kaaba"/><g id="Mosque_00000003803682752247596670000011302116631847618953_"/><g id="Fasting"/><g id="Quran_00000024699989614576326310000007593149211605186702_"><g><path d="M59.742,51.655c-0.038-0.02-0.077-0.039-0.117-0.056l-12.732-5.602l12.283-5.404C61.499,39.689,63,37.494,63,35    c0-1.947-0.936-3.674-2.377-4.771c1.803-2.231,2.328-5.34,1.117-8.167l-0.709-1.656c-0.211-0.492-0.61-0.879-1.108-1.074    c-0.498-0.196-1.055-0.183-1.542,0.034l-0.131,0.058l-0.947-2.841c-0.537-1.611-1.737-2.924-3.293-3.602    c-1.556-0.679-3.334-0.666-4.881,0.037L32,20.802l-17.128-7.784c-1.546-0.703-3.325-0.716-4.881-0.037    c-1.556,0.678-2.756,1.991-3.293,3.602l-0.947,2.841L5.62,19.366c-0.489-0.217-1.044-0.23-1.542-0.034    c-0.498,0.195-0.897,0.583-1.108,1.074L2.26,22.061c-1.211,2.827-0.686,5.937,1.117,8.168C1.936,31.326,1,33.053,1,35    c0,2.494,1.501,4.689,3.745,5.561l12.362,5.438L4.375,51.6c-0.04,0.017-0.079,0.036-0.117,0.056C2.249,52.699,1,54.747,1,57    c0,3.309,2.691,6,6,6c0.81,0,1.591-0.158,2.324-0.47c0.048-0.021,0.096-0.043,0.143-0.068L32,52.55l22.527,9.909    c0.049,0.026,0.099,0.049,0.149,0.071C55.409,62.842,56.19,63,57,63c3.309,0,6-2.691,6-6C63,54.747,61.751,52.699,59.742,51.655z     M57.645,36.899l-15.718,6.914l-4.961-2.183l19.299-8.49c0.016-0.007,0.032-0.014,0.047-0.021C56.521,33.041,56.757,33,57,33    c1.103,0,2,0.897,2,2C59,35.819,58.487,36.569,57.645,36.899z M7.921,28.838c-1.9-0.887-2.779-3.046-2.068-4.991l22.3,9.91    c1.202,0.534,2.528,0.801,3.847,0.773c0.062,0.001,0.125,0.002,0.187,0.002c1.254,0,2.515-0.267,3.66-0.775l22.3-9.91    c0.711,1.945-0.167,4.104-2.068,4.991L32,39.446L7.921,28.838z M10.493,17.847c0.182-0.544,0.571-0.971,1.098-1.201    c0.527-0.229,1.104-0.225,1.627,0.013l17.955,8.16c0.263,0.12,0.545,0.179,0.828,0.179s0.564-0.06,0.828-0.179l17.955-8.16    c0.523-0.238,1.101-0.242,1.627-0.013c0.526,0.229,0.916,0.656,1.098,1.201l1.07,3.209l-20.355,9.045    c-0.676,0.301-1.419,0.448-2.167,0.429c-0.036-0.001-0.073-0.001-0.109,0c-0.739,0.019-1.491-0.128-2.168-0.429L9.423,21.056    L10.493,17.847z M7.745,58.85c-0.024,0.011-0.049,0.022-0.073,0.034C7.461,58.961,7.236,59,7,59c-1.103,0-2-0.897-2-2    c0-0.736,0.403-1.41,1.055-1.77l16.018-7.048l4.961,2.182L7.745,58.85z M57,59c-0.235,0-0.46-0.039-0.67-0.116    c-0.024-0.012-0.049-0.023-0.074-0.034L6.275,36.866C5.513,36.569,5,35.819,5,35c0-1.103,0.897-2,2-2    c0.243,0,0.479,0.041,0.688,0.119c0.016,0.007,0.031,0.015,0.047,0.021l50.211,22.09C58.597,55.59,59,56.264,59,57    C59,58.103,58.103,59,57,59z"/><path d="M15,7c0,1.104,0.896,2,2,2s2-0.896,2-2c1.104,0,2-0.896,2-2s-0.896-2-2-2c0-1.104-0.896-2-2-2s-2,0.896-2,2    c-1.104,0-2,0.896-2,2S13.896,7,15,7z"/><path d="M45,8c0,1.104,0.896,2,2,2s2-0.896,2-2c1.104,0,2-0.896,2-2s-0.896-2-2-2c0-1.104-0.896-2-2-2s-2,0.896-2,2    c-1.104,0-2,0.896-2,2S43.896,8,45,8z"/><path d="M27.02,15c1.104,0,2-0.896,2-2s-0.896-2-2-2h-0.01c-1.104,0-1.995,0.896-1.995,2S25.916,15,27.02,15z"/><path d="M37.02,6c1.104,0,2-0.896,2-2s-0.896-2-2-2h-0.01c-1.104,0-1.995,0.896-1.995,2S35.916,6,37.02,6z"/></g></g><g id="Calendar"/><g id="Bedug"/><g id="Lantern"/><g id="Quran"/><g id="Mosque"/></svg>