<?xml version="1.0" ?><svg style="enable-background:new 0 0 64 64;" version="1.1" viewBox="0 0 64 64" xml:space="preserve" xmlns="http://www.w3.org/2000/svg" xmlns:xlink="http://www.w3.org/1999/xlink"><g id="Layer_1"/><g id="Light"/><g id="Window"/><g id="Rub_el_hizb"/><g id="Muslimah"/><g id="Muslim"/><g id="Wudhu"/><g id="Praying_00000094592418709929368740000016989174723214131090_"/><g id="Praying"/><g id="Pray"/><g id="Ketupat"/><g id="Gift"/><g id="Oil_Lamp"/><g id="Tauhid"/><g id="Zakat"><path d="M52.867,35.4l-4.541-3.406c0.515-0.686,0.866-1.505,0.972-2.41l1.294-11c0.167-1.417-0.282-2.841-1.23-3.907   c-0.562-0.632-1.271-1.099-2.051-1.378l1.662-9.969c0.097-0.58-0.066-1.173-0.447-1.622C48.146,1.259,47.588,1,47,1h-1.528   C42.996,1,40.695,1.968,39,3.638C37.305,1.968,35.004,1,32.528,1H31c-0.588,0-1.146,0.259-1.526,0.707   c-0.38,0.449-0.543,1.042-0.447,1.622l0.285,1.708C26.154,5.222,23.165,6.649,21.057,9h-1.199c-0.447-1.721-2-3-3.858-3H9   c-2.206,0-4,1.794-4,4v20c0,2.206,1.794,4,4,4h7c1.858,0,3.411-1.279,3.858-3h0.475l0.8,0.601c1.29,0.967,2.773,1.663,4.334,2.048   l-2.334,1.75C19.293,38.28,17,42.865,17,47.667C17,56.122,23.878,63,32.333,63h11.333C52.122,63,59,56.122,59,47.667   C59,42.865,56.707,38.28,52.867,35.4z M37.211,7.895C37.55,8.572,38.243,9,39,9s1.45-0.428,1.789-1.105   c0.765-1.529,2.191-2.562,3.839-2.827L43.306,13h-8.611l-1.322-7.933C35.02,5.332,36.446,6.365,37.211,7.895z M9,30V10h7l0,0.999   c0,0,0,0.001,0,0.001s0,0.001,0,0.001l0.002,17.976C16.002,28.985,16,28.992,16,29s0.002,0.015,0.002,0.023l0,0.977H9z M22.2,27.4   c-0.346-0.26-0.767-0.4-1.2-0.4h-1V13h2c0.629,0,1.222-0.296,1.6-0.8c1.498-1.997,3.879-3.19,6.373-3.199l0.672,4.034   C29.711,13.204,29,14.017,29,15c0,1.104,0.896,2,2,2h14.626c0.391,0,0.636,0.21,0.747,0.335c0.111,0.126,0.292,0.395,0.246,0.782   l-1.294,11C45.266,29.62,44.839,30,44.332,30H31h-2.667c-1.719,0-3.424-0.568-4.8-1.6L22.2,27.4z M36.585,42.242L38,40.828   l1.414,1.414c0.583,0.583,0.734,1.433,0.436,2.163c-0.687,0.265-1.311,0.652-1.85,1.135c-0.538-0.483-1.161-0.869-1.847-1.134   C35.862,43.679,36.013,42.815,36.585,42.242z M40,50c0-1.103,0.897-2,2-2h2v2c0,1.103-0.897,2-2,2h-2V50z M34,48   c1.103,0,2,0.897,2,2v2h-2c-1.103,0-2-0.897-2-2v-2H34z M43.667,59H40v-3h2c3.309,0,6-2.691,6-6v-4c0-1.104-0.896-2-2-2h-2.016   c0.096-1.656-0.486-3.33-1.742-4.586l-2.829-2.828c-0.781-0.781-2.047-0.781-2.828,0l-2.829,2.828   c-1.256,1.256-1.838,2.93-1.742,4.586H30c-1.104,0-2,0.896-2,2v4c0,3.309,2.691,6,6,6h2v3h-3.667C26.084,59,21,53.916,21,47.667   c0-3.549,1.695-6.938,4.534-9.067l6.133-4.6h12.666h0.001l6.133,4.601C53.305,40.729,55,44.118,55,47.667   C55,53.916,49.916,59,43.667,59z"/></g><g id="Eat"/><g id="Oud"/><g id="Teapot"/><g id="Iftar"/><g id="Dawn"/><g id="Infaq"/><g id="Sajadah"/><g id="Kaaba"/><g id="Mosque_00000003803682752247596670000011302116631847618953_"/><g id="Fasting"/><g id="Quran_00000024699989614576326310000007593149211605186702_"/><g id="Calendar"/><g id="Bedug"/><g id="Lantern"/><g id="Quran"/><g id="Mosque"/></svg>